<svg width="195" height="21" viewBox="0 0 195 21" fill="none" xmlns="http://www.w3.org/2000/svg">
<path d="M86.5544 8.32849L82.6101 17.2131H81.1066L82.5538 14.0379L79.9994 8.32849H81.5318L83.2343 12.4226H83.2911L84.9367 8.32849H86.5544Z" fill="black"/>
<path d="M76.9923 8.13281C75.9425 8.13281 74.8926 8.57905 74.4384 9.58167L75.7156 10.1106C75.9993 9.58167 76.4818 9.41433 77.0203 9.41433C77.7581 9.41433 78.5243 9.85963 78.5243 10.6117V10.6959C78.269 10.5559 77.7012 10.3338 77.0203 10.3338C75.6588 10.3338 74.2684 11.0858 74.2684 12.4506C74.2684 13.7037 75.4035 14.5116 76.6514 14.5116C77.6165 14.5116 78.1554 14.0937 78.4674 13.5922H78.5243V14.3164H79.9146V10.6959C79.8857 9.05224 78.609 8.13329 76.9923 8.13329V8.13281ZM76.8218 13.2854C76.3393 13.2854 75.6867 13.0627 75.6867 12.4775C75.6867 11.7538 76.5098 11.4749 77.1907 11.4749C77.8149 11.4749 78.1274 11.6148 78.4954 11.7812C78.4106 12.6727 77.6444 13.2849 76.8214 13.2849L76.8218 13.2854Z" fill="black"/>
<path d="M73.4454 4.93018H72.0261V14.3438H73.4454V4.93018Z" fill="black"/>
<path d="M68.1103 4.93018H64.677V14.3438H66.0963V10.779H68.0824C69.6711 10.779 71.232 9.66486 71.232 7.85484C71.232 6.04483 69.6711 4.93065 68.1103 4.93065V4.93018ZM68.1392 9.4701H66.0963V6.23911H68.1392C69.2175 6.23911 69.8132 7.10276 69.8132 7.85437C69.8132 8.60598 69.2175 9.46963 68.1392 9.46963V9.4701Z" fill="black"/>
<path d="M58.7755 13.3138C58.0377 13.3138 57.5267 12.9791 57.1867 12.3386L61.5562 10.556L61.3858 10.1944C61.1021 9.47019 60.2795 8.16125 58.605 8.16125C56.9305 8.16125 55.5406 9.47019 55.5406 11.3639C55.5406 13.1465 56.931 14.567 58.7755 14.567C60.2795 14.567 61.1305 13.6759 61.4994 13.1465L60.3932 12.4228C60.0243 12.9517 59.5133 13.3138 58.7755 13.3138ZM58.6334 9.387C59.2008 9.387 59.6828 9.66542 59.8533 10.0549L56.931 11.2528C56.9021 10.027 57.8956 9.387 58.6334 9.387Z" fill="black"/>
<path d="M54.8312 4.93018H53.384V14.3438H54.8312V4.93018Z" fill="black"/>
<path d="M51.0291 8.35593V8.85701H50.9723C50.6602 8.46702 50.0356 8.13281 49.241 8.13281C47.6238 8.13281 46.1198 9.55331 46.1198 11.3359C46.1198 13.1185 47.6238 14.539 49.241 14.539C50.0077 14.539 50.6313 14.2043 50.9723 13.8148H51.0291V14.2885C51.0291 15.5137 50.3481 16.1821 49.2978 16.1821C48.4179 16.1821 47.8795 15.5695 47.6522 15.0405L46.4039 15.5416C46.7723 16.3769 47.7085 17.4353 49.2978 17.4353C50.9723 17.4353 52.3906 16.4601 52.3906 14.0932V8.35593H51.0291ZM49.3835 13.2854C48.39 13.2854 47.5674 12.4775 47.5674 11.3638C47.5674 10.2501 48.3905 9.41433 49.3835 9.41433C50.3766 9.41433 51.1144 10.2501 51.1144 11.3638C51.1423 12.478 50.3766 13.2854 49.3835 13.2854Z" fill="black"/>
<path d="M42.2612 8.13281C40.4451 8.13281 38.9984 9.47011 38.9984 11.3359C38.9984 13.2017 40.4735 14.539 42.2612 14.539C44.0489 14.539 45.5245 13.1743 45.5245 11.3359C45.5524 9.49753 44.0773 8.13281 42.2612 8.13281ZM42.2612 13.2854C41.2686 13.2854 40.4167 12.4775 40.4167 11.3359C40.4167 10.1943 41.2682 9.38644 42.2612 9.38644C43.2543 9.38644 44.1057 10.1659 44.1057 11.3359C44.1057 12.5059 43.2547 13.2854 42.2612 13.2854Z" fill="black"/>
<path d="M35.1109 8.13281C33.2953 8.13281 31.8481 9.47011 31.8481 11.3359C31.8481 13.2017 33.3233 14.539 35.1109 14.539C36.8986 14.539 38.3742 13.1743 38.3742 11.3359C38.4022 9.49753 36.927 8.13281 35.1109 8.13281ZM35.1109 13.2854C34.1184 13.2854 33.2664 12.4775 33.2664 11.3359C33.2664 10.1943 34.1179 9.38644 35.1109 9.38644C36.104 9.38644 36.9555 10.1659 36.9555 11.3359C36.9555 12.5059 36.1045 13.2854 35.1109 13.2854Z" fill="black"/>
<path d="M31.2803 9.19171C31.3372 9.41436 31.3651 9.72068 31.3651 10.027C31.3651 11.0296 31.0814 12.3111 30.1731 13.2022C29.2653 14.1216 28.1302 14.5943 26.6262 14.5943C23.8455 14.5943 21.4905 12.3386 21.4905 9.60912C21.4905 6.87968 23.8455 4.6239 26.6262 4.6239C28.1582 4.6239 29.2653 5.20865 30.0879 5.98862L29.1233 6.93546C28.5271 6.37861 27.7329 5.9612 26.6257 5.9612C24.5828 5.9612 22.994 7.57646 22.994 9.5817C22.994 11.5869 24.5828 13.2022 26.6257 13.2022C27.9313 13.2022 28.6971 12.6732 29.1796 12.1996C29.5769 11.8096 29.8601 11.2527 29.9458 10.5007H26.6257V9.19171H31.2794H31.2803Z" fill="black"/>
<path d="M8.85757 10.3057C5.91926 13.1829 2.95859 16.082 0 18.9787V1.6322C2.96274 4.53379 5.92009 7.42887 8.85757 10.3057Z" fill="black"/>
<path d="M11.7946 7.44437C11.0774 8.17922 10.3706 8.90431 9.682 9.6099C6.69815 6.68473 3.73955 3.78396 0.748657 0.852295C0.934165 0.876681 1.11843 0.888875 1.29607 0.929112C1.38717 0.949841 1.46791 1.01772 1.55031 1.06933C4.92009 3.16373 8.28904 5.25894 11.6576 7.35414C11.7143 7.3891 11.7685 7.4273 11.7946 7.44437Z" fill="black"/>
<path d="M11.8382 13.1565C11.7711 13.1996 11.7049 13.2435 11.6374 13.2857C8.28788 15.3688 4.93798 17.451 1.58974 19.5356C1.33094 19.697 1.06924 19.823 0.776489 19.7441C3.73053 16.849 6.68788 13.9507 9.65973 11.0377C10.3421 11.7376 11.0531 12.4664 11.7637 13.1955C11.7885 13.1821 11.8134 13.1695 11.8382 13.1561V13.1565Z" fill="black"/>
<path d="M15.0365 11.1571C14.2555 11.6559 13.4688 12.1452 12.7454 12.5996C11.9238 11.8302 11.1255 11.0824 10.3081 10.3166C11.1272 9.54764 11.9247 8.79898 12.7445 8.02917C12.9797 8.17631 13.2775 8.36083 13.5744 8.54739C14.0621 8.85425 14.552 9.15786 15.0365 9.4696C15.7263 9.91303 15.7276 10.7158 15.0369 11.1571H15.0365Z" fill="black"/>
<line x1="101.054" y1="3.8103" x2="101.054" y2="16.8103" stroke="#CBCBCB"/>
<path d="M128.498 10.9172C128.475 8.29818 130.617 7.04077 130.711 6.98249C129.508 5.20302 127.631 4.95501 126.965 4.92525C125.367 4.7628 123.847 5.87636 123.039 5.87636C122.231 5.87636 120.978 4.95253 119.656 4.97857C117.912 5.00213 116.311 6.00161 115.413 7.57027C113.605 10.7374 114.949 15.4322 116.714 18.0003C117.573 19.2577 118.599 20.6701 119.946 20.6193C121.247 20.5685 121.738 19.7723 123.308 19.7723C124.877 19.7723 125.318 20.6193 126.693 20.5982C128.089 20.5685 128.975 19.311 129.827 18.0536C130.814 16.5941 131.225 15.1817 131.248 15.1073C131.217 15.0961 128.524 14.052 128.497 10.9172L128.498 10.9172Z" fill="#111111"/>
<path d="M126.035 3.39367C126.882 2.49557 127.452 1.2446 127.296 -1.32762e-08C126.078 0.0407648 124.602 0.714659 123.73 1.60894C122.945 2.40767 122.256 3.68412 122.443 4.90197C123.8 4.99242 125.191 4.29432 126.035 3.39367Z" fill="#111111"/>
<path d="M138.975 15.3103L137.489 15.3103L140.79 6.1189L142.402 6.1189L145.716 15.3103L144.23 15.3103L143.393 12.8855L139.813 12.8855L138.975 15.3103ZM140.212 11.7175L142.986 11.7175L141.628 7.79468L141.564 7.79468L140.212 11.7175ZM146.445 17.9001L146.445 8.41675L147.765 8.41675L147.765 9.53394L147.879 9.53394C148.12 9.10229 148.584 8.32788 149.86 8.32788C151.529 8.32788 152.754 9.6355 152.754 11.8826C152.754 14.1042 151.542 15.4436 149.872 15.45C148.622 15.4436 148.127 14.6819 147.879 14.2312L147.803 14.2312L147.803 17.9001L146.445 17.9001ZM147.778 11.8572C147.778 13.3044 148.412 14.2883 149.568 14.2947C150.761 14.2883 151.383 13.241 151.383 11.8572C151.383 10.4988 150.78 9.47681 149.568 9.48315C148.4 9.47681 147.778 10.4226 147.778 11.8572ZM153.775 17.9001L153.775 8.41675L155.095 8.41675L155.095 9.53394L155.209 9.53394C155.451 9.10229 155.914 8.32788 157.19 8.32788C158.859 8.32788 160.084 9.6355 160.084 11.8826C160.084 14.1042 158.872 15.4436 157.203 15.45C155.952 15.4436 155.457 14.6819 155.209 14.2312L155.133 14.2312L155.133 17.9001L153.775 17.9001ZM155.108 11.8572C155.108 13.3044 155.743 14.2883 156.898 14.2947C158.091 14.2883 158.713 13.241 158.713 11.8572C158.713 10.4988 158.11 9.47681 156.898 9.48315C155.73 9.47681 155.108 10.4226 155.108 11.8572ZM169.07 8.5437C168.981 7.68677 168.232 7.198 167.179 7.198C166.055 7.198 165.344 7.77563 165.338 8.5564C165.338 9.42603 166.283 9.7688 167.013 9.94019L167.902 10.1814C169.076 10.467 170.549 11.1082 170.555 12.7712C170.549 14.3264 169.311 15.4626 167.14 15.4626C165.084 15.4626 163.789 14.4343 163.7 12.7585L165.096 12.7585C165.179 13.7615 166.068 14.2375 167.14 14.2439C168.315 14.2375 169.165 13.6472 169.172 12.7458C169.165 11.946 168.404 11.6223 167.432 11.3621L166.341 11.0701C164.862 10.6638 163.948 9.91479 163.941 8.63257C163.948 7.04565 165.357 5.99194 167.217 5.99194C169.083 5.99194 170.384 7.05835 170.429 8.5437L169.07 8.5437ZM174.839 8.41675L174.839 9.49585L173.43 9.49585L173.43 13.2791C173.436 14.0598 173.817 14.1995 174.255 14.2058C174.452 14.2058 174.75 14.1868 174.94 14.1677L174.94 15.3484C174.756 15.3738 174.464 15.3992 174.09 15.3992C173.03 15.3992 172.071 14.8152 172.084 13.5583L172.084 9.49585L171.068 9.49585L171.068 8.41675L172.084 8.41675L172.084 6.76636L173.43 6.76636L173.43 8.41675L174.839 8.41675ZM178.678 15.45C176.723 15.45 175.447 14.0281 175.453 11.8953C175.447 9.74976 176.723 8.32788 178.678 8.32788C180.62 8.32788 181.89 9.74976 181.89 11.8953C181.89 14.0281 180.62 15.45 178.678 15.45ZM176.812 11.8953C176.812 13.2092 177.415 14.3201 178.678 14.3201C179.922 14.3201 180.519 13.2092 180.519 11.8953C180.519 10.575 179.922 9.45142 178.678 9.44507C177.415 9.45142 176.812 10.575 176.812 11.8953ZM182.898 15.3103L182.898 8.41675L184.205 8.41675L184.205 9.50854L184.282 9.50854C184.536 8.77222 185.227 8.30884 186.034 8.31519C186.199 8.30884 186.465 8.32788 186.605 8.34058L186.605 9.6355C186.491 9.61011 186.173 9.55298 185.894 9.55933C184.954 9.55298 184.256 10.2068 184.256 11.1082L184.256 15.3103L182.898 15.3103ZM190.038 15.45C188.006 15.45 186.756 14.0471 186.762 11.908C186.756 9.78784 188.025 8.32788 189.949 8.32788C191.517 8.32788 193.008 9.29907 193.008 11.7937L193.008 12.2761L188.108 12.2761C188.146 13.5901 188.921 14.3328 190.05 14.3328C190.818 14.3328 191.32 14.0027 191.548 13.5837L192.92 13.5837C192.615 14.7009 191.555 15.45 190.038 15.45ZM188.114 11.2605L191.675 11.2605C191.675 10.2131 190.996 9.43872 189.962 9.44507C188.876 9.43872 188.171 10.2893 188.114 11.2605Z" fill="#111111"/>
</svg>
