<svg width="148" height="15" viewBox="0 0 148 15" fill="none" xmlns="http://www.w3.org/2000/svg">
<path d="M61.7506 7.06448H61.7308C61.7308 9.49662 59.7526 11.4798 57.3155 11.4798C54.8784 11.4798 52.9002 9.50155 52.9002 7.06448H52.8804V0.00488281H50.251V7.12862C50.2855 11.0013 53.433 14.129 57.3106 14.129C61.1882 14.129 64.3356 11.0013 64.3702 7.12862V0.00488281H61.7407V7.06448H61.7506Z" fill="#111111"/>
<path d="M74.0789 11.4996L74.0691 11.4798C71.6369 11.4798 69.6537 9.50155 69.6537 7.06448H69.634V0.00488281H67.0045V7.12862C67.039 11.0013 70.1865 14.129 74.0641 14.129H81.1237V11.4996H74.074H74.0789Z" fill="#111111"/>
<path d="M90.8818 0.00488281H86.3826H83.7532V14.129H90.8769C94.7496 14.0896 97.8773 10.947 97.8773 7.06942C97.8773 3.19182 94.7496 0.0443543 90.8769 0.00982096L90.8818 0.00488281ZM90.8177 11.4798V11.4996H86.3826V2.62942H90.8177V2.64917C93.2498 2.64917 95.2331 4.62742 95.2331 7.06448C95.2331 9.50155 93.2548 11.4798 90.8177 11.4798Z" fill="#111111"/>
<path d="M107.507 0.00490804C103.635 0.0394414 100.507 3.18691 100.507 7.06451C100.507 10.9421 103.635 14.0896 107.507 14.1241H114.508V11.4947H107.571V11.4749C105.598 11.4749 103.921 10.1725 103.358 8.38173H114.508V5.74238H103.358C103.921 3.95158 105.598 2.6492 107.571 2.6492V2.62944H114.508V0H107.507V0.00490804Z" fill="#111111"/>
<path d="M40.5668 0.00488281C36.6645 0.00488281 33.5072 3.16715 33.5072 7.06448C33.5072 10.9618 36.6695 14.1241 40.5668 14.1241C44.4641 14.1241 47.6264 10.9618 47.6264 7.06448C47.6264 3.16715 44.4641 0.00488281 40.5668 0.00488281ZM40.5668 11.4996C38.1199 11.4996 36.1317 9.51142 36.1317 7.06448C36.1317 4.61755 38.1199 2.62942 40.5668 2.62942C43.0137 2.62942 45.0019 4.61755 45.0019 7.06448C45.0019 9.51142 43.0137 11.4996 40.5668 11.4996Z" fill="#111111"/>
<path d="M0 4.19331C0 6.50211 1.8796 8.3817 4.1884 8.3817H9.93573C10.7941 8.3817 11.4947 9.08222 11.4947 9.94062C11.4947 10.799 10.7941 11.4996 9.93573 11.4996H0V14.129H9.93573C12.2445 14.129 14.1241 12.2494 14.1241 9.94062C14.1241 7.63182 12.2445 5.75223 9.93573 5.75223H4.1884C3.33 5.75223 2.62947 5.05171 2.62947 4.19331C2.62947 3.33491 3.33 2.63436 4.1884 2.63436H14.1241V0.00488281H4.1884C1.8796 0.00488281 0 1.88451 0 4.19331Z" fill="#111111"/>
<path d="M131.266 4.19331C131.266 1.88451 129.386 0.00488281 127.078 0.00488281H117.132V14.129H119.742V8.3817H122.884C126.042 8.3817 128.612 10.9667 128.612 14.1241H131.256C131.256 11.7413 130.255 9.5953 128.656 8.0709C130.186 7.44437 131.261 5.94464 131.261 4.19331H131.266ZM119.742 5.75223V2.63436H127.078C127.936 2.63436 128.637 3.33491 128.637 4.19331C128.637 5.05171 127.936 5.75223 127.078 5.75223H121.172H119.742Z" fill="#111111"/>
<path d="M138.064 2.62944H148V0H138.064C135.755 0 133.876 1.8796 133.876 4.18839C133.876 6.49719 135.755 8.37679 138.064 8.37679H143.812C144.67 8.37679 145.371 9.07731 145.371 9.93571C145.371 10.7941 144.67 11.4947 143.812 11.4947H133.876V14.1241H143.812C146.12 14.1241 148 12.2445 148 9.93571C148 7.62691 146.12 5.74731 143.812 5.74731H138.064C137.206 5.74731 136.505 5.04679 136.505 4.18839C136.505 3.32999 137.206 2.62944 138.064 2.62944Z" fill="#111111"/>
<path d="M28.2483 5.75223H19.3782V0.00488281H16.7537V14.129H19.3782V8.37677H28.2483V14.129H30.8778V0.00488281H28.2483V5.75223Z" fill="#111111"/>
</svg>
