<svg width="116" height="106" viewBox="0 0 116 106" fill="none" xmlns="http://www.w3.org/2000/svg">
<path d="M106.048 9.95089C99.4221 3.32795 90.719 0 82.0159 0C73.3128 0 64.6262 3.31147 58 9.93441C51.3573 3.31147 42.6707 0 33.9676 0C25.2645 0 16.5779 3.31147 9.95169 9.95089C-3.31723 23.2132 -3.31723 44.7131 9.95169 57.9754L58 106L106.048 57.9754C119.317 44.7131 119.317 23.2132 106.048 9.95089ZM19.924 50.1004L18.8691 49.046C14.8307 45.0096 12.622 39.6553 12.622 33.9549C12.622 28.2546 14.8472 22.9002 18.8691 18.8638C22.9074 14.8275 28.2644 12.6198 33.9676 12.6198C39.6708 12.6198 45.0278 14.844 49.0497 18.8638L24.2096 43.6916C22.314 45.5863 20.8965 47.761 19.9075 50.1004H19.924ZM82.8401 63.2145L57.9506 88.0917L46.297 76.4439C48.6211 75.4719 50.8134 74.0386 52.7089 72.1439L60.8845 63.9723L68.1701 56.6904L72.2414 52.6211C75.1589 49.705 79.9226 49.705 82.8401 52.6211C85.7576 55.5372 85.7576 60.2984 82.8401 63.2145ZM97.1145 49.046L96.0595 50.1004C95.087 47.7774 93.653 45.5863 91.7574 43.6916C83.9115 35.8496 71.1371 35.8496 63.2911 43.6916L59.2198 47.761L51.9342 55.0429L43.7586 63.2145C40.8411 66.1306 36.0774 66.1306 33.1599 63.2145C30.2424 60.2984 30.2424 55.5372 33.1599 52.6211L58 27.7933L66.9339 18.8638C70.9722 14.8275 76.3292 12.6198 82.0324 12.6198C87.7356 12.6198 93.0926 14.844 97.1309 18.8638C105.455 27.1837 105.455 40.7097 97.1309 49.0295L97.1145 49.046Z" fill="url(#paint0_linear_1548_11138)"/>
<defs>
<linearGradient id="paint0_linear_1548_11138" x1="3" y1="-7.5" x2="99.5" y2="77.5" gradientUnits="userSpaceOnUse">
<stop stop-color="#00BEB8"/>
<stop offset="0.145" stop-color="#20D5CF"/>
<stop offset="1" stop-color="#E0F7F7"/>
</linearGradient>
</defs>
</svg>
