<svg width="183" height="65" viewBox="0 0 183 65" fill="none" xmlns="http://www.w3.org/2000/svg">
<path d="M107.278 3.26858C105.1 1.0908 102.242 0 99.3872 0C96.5325 0 93.6739 1.0908 91.4961 3.26858C89.3183 1.0908 86.4598 0 83.6051 0C80.7504 0 77.8918 1.0908 75.714 3.26858C71.3546 7.628 71.3546 14.6951 75.714 19.0545L91.5 34.8405L107.286 19.0545C111.645 14.6951 111.645 7.628 107.286 3.26858H107.278ZM78.6422 6.20452C79.9651 4.88161 81.729 4.15053 83.6012 4.15053C85.4734 4.15053 87.2334 4.87774 88.5563 6.20452L80.3984 14.3625C79.7756 14.9853 79.3075 15.7009 78.9865 16.4668L78.6422 16.1225C77.3193 14.7996 76.5882 13.0357 76.5882 11.1635C76.5882 9.29132 77.3193 7.5313 78.6422 6.20452ZM99.6541 20.7798L91.4768 28.9571L87.6473 25.1276C88.4132 24.8065 89.1288 24.3385 89.7516 23.7157L92.44 21.0273L94.8343 18.6329L96.1689 17.2984C97.1282 16.3391 98.6909 16.3391 99.6541 17.2984C100.613 18.2577 100.613 19.8205 99.6541 20.7836V20.7798ZM104.346 16.1186L104.002 16.4629C103.681 15.697 103.213 14.9814 102.59 14.3586C100.01 11.7785 95.8169 11.7785 93.2368 14.3586L91.9023 15.6931L89.5079 18.0875L86.8195 20.7759C85.8602 21.7352 84.2975 21.7352 83.3343 20.7759C82.375 19.8166 82.375 18.2538 83.3343 17.2907L91.4922 9.13272L94.4282 6.20065C95.7511 4.87774 97.515 4.14666 99.3872 4.14666C101.259 4.14666 103.019 4.87774 104.346 6.20065C107.081 8.93544 107.081 13.3838 104.346 16.1186Z" fill="#00D9D5"/>
<path d="M76.4927 55.4955H76.4686C76.4686 58.4752 74.0449 60.9049 71.0592 60.9049C68.0735 60.9049 65.6498 58.4812 65.6498 55.4955H65.6256V46.8465H62.4042V55.5741C62.4465 60.3186 66.3026 64.1505 71.0531 64.1505C75.8037 64.1505 79.6598 60.3186 79.7021 55.5741V46.8465H76.4807V55.4955H76.4927Z" fill="#00D9D5"/>
<path d="M91.5967 60.9291L91.5846 60.9049C88.6049 60.9049 86.1752 58.4812 86.1752 55.4955H86.151V46.8465H82.9296V55.5741C82.9719 60.3186 86.8279 64.1505 91.5785 64.1505H100.227V60.9291H91.5906H91.5967Z" fill="#00D9D5"/>
<path d="M112.183 46.8465H106.67H103.449V64.1505H112.177C116.921 64.1022 120.753 60.2521 120.753 55.5016C120.753 50.751 116.921 46.8949 112.177 46.8526L112.183 46.8465ZM112.104 60.9049V60.9291H106.67V50.062H112.104V50.0862C115.084 50.0862 117.513 52.5098 117.513 55.4955C117.513 58.4812 115.09 60.9049 112.104 60.9049Z" fill="#00D9D5"/>
<path d="M132.551 46.8465C127.806 46.8889 123.974 50.7449 123.974 55.4955C123.974 60.2461 127.806 64.1022 132.551 64.1445H141.127V60.923H132.63V60.8988C130.212 60.8988 128.157 59.3033 127.468 57.1093H141.127V53.8757H127.468C128.157 51.6817 130.212 50.0862 132.63 50.0862V50.062H141.127V46.8405H132.551V46.8465Z" fill="#00D9D5"/>
<path d="M50.5398 46.8465C45.759 46.8465 41.8909 50.7207 41.8909 55.4955C41.8909 60.2703 45.7651 64.1445 50.5398 64.1445C55.3146 64.1445 59.1888 60.2703 59.1888 55.4955C59.1888 50.7207 55.3146 46.8465 50.5398 46.8465ZM50.5398 60.9291C47.542 60.9291 45.1063 58.4933 45.1063 55.4955C45.1063 52.4977 47.542 50.062 50.5398 50.062C53.5377 50.062 55.9734 52.4977 55.9734 55.4955C55.9734 58.4933 53.5377 60.9291 50.5398 60.9291Z" fill="#00D9D5"/>
<path d="M0.839966 51.9777C0.839966 54.8063 3.14273 57.1091 5.97133 57.1091H13.0126C14.0642 57.1091 14.9225 57.9673 14.9225 59.019C14.9225 60.0706 14.0642 60.9289 13.0126 60.9289H0.839966V64.1503H13.0126C15.8412 64.1503 18.1439 61.8476 18.1439 59.019C18.1439 56.1904 15.8412 53.8876 13.0126 53.8876H5.97133C4.91967 53.8876 4.06142 53.0294 4.06142 51.9777C4.06142 50.9261 4.91967 50.0678 5.97133 50.0678H18.1439V46.8463H5.97133C3.14273 46.8463 0.839966 49.1491 0.839966 51.9777Z" fill="#00D9D5"/>
<path d="M161.659 51.9779C161.659 49.1493 159.356 46.8465 156.527 46.8465H144.343V64.1505H147.54V57.1093H151.39C155.258 57.1093 158.407 60.2763 158.407 64.1445H161.647C161.647 61.2252 160.42 58.5961 158.462 56.7285C160.335 55.9609 161.653 54.1236 161.653 51.9779H161.659ZM147.54 53.8878V50.068H156.527C157.579 50.068 158.437 50.9263 158.437 51.9779C158.437 53.0296 157.579 53.8878 156.527 53.8878H149.293H147.54Z" fill="#00D9D5"/>
<path d="M169.987 50.062H182.16V46.8405H169.987C167.159 46.8405 164.856 49.1433 164.856 51.9719C164.856 54.8005 167.159 57.1032 169.987 57.1032H177.029C178.08 57.1032 178.939 57.9615 178.939 59.0131C178.939 60.0648 178.08 60.923 177.029 60.923H164.856V64.1445H177.029C179.857 64.1445 182.16 61.8417 182.16 59.0131C182.16 56.1845 179.857 53.8818 177.029 53.8818H169.987C168.936 53.8818 168.078 53.0235 168.078 51.9719C168.078 50.9202 168.936 50.062 169.987 50.062Z" fill="#00D9D5"/>
<path d="M35.4479 53.8878H24.5808V46.8465H21.3654V64.1505H24.5808V57.1032H35.4479V64.1505H38.6693V46.8465H35.4479V53.8878Z" fill="#00D9D5"/>
</svg>
