<svg width="87" height="86" viewBox="0 0 87 86" fill="none" xmlns="http://www.w3.org/2000/svg">
<rect x="0.125" width="86" height="86" rx="43" fill="#F7F7FB"/>
<path d="M61.2765 28.8614C58.7037 26.2886 55.3267 25 51.9542 25C48.5818 25 45.2048 26.2886 42.632 28.8614C40.0593 26.2886 36.6822 25 33.3098 25C29.9373 25 26.5603 26.2886 23.9876 28.8614C18.8375 34.0115 18.8375 42.3603 23.9876 47.5104L42.6366 66.1595L61.2856 47.5104C66.4357 42.3603 66.4357 34.0115 61.2856 28.8614H61.2765ZM27.4468 32.3298C29.0097 30.767 31.0935 29.9033 33.3052 29.9033C35.517 29.9033 37.5962 30.7624 39.159 32.3298L29.5215 41.9674C28.7858 42.7031 28.2328 43.5485 27.8535 44.4533L27.4468 44.0466C25.884 42.4837 25.0203 40.3999 25.0203 38.1882C25.0203 35.9765 25.884 33.8972 27.4468 32.3298ZM52.2695 49.5485L42.6092 59.2089L38.0851 54.6849C38.9899 54.3056 39.8353 53.7527 40.5711 53.0169L43.747 49.841L46.5757 47.0123L48.1522 45.4358C49.2855 44.3025 51.1317 44.3025 52.2695 45.4358C53.4028 46.5691 53.4028 48.4152 52.2695 49.5531V49.5485ZM57.8126 44.042L57.4059 44.4487C57.0266 43.5439 56.4737 42.6985 55.738 41.9628C52.69 38.9148 47.7364 38.9148 44.6884 41.9628L43.1118 43.5394L40.2832 46.368L37.1072 49.5439C35.9739 50.6772 34.1278 50.6772 32.9899 49.5439C31.8566 48.4107 31.8566 46.5645 32.9899 45.4266L42.6274 35.7891L46.0959 32.3252C47.6587 30.7624 49.7425 29.8987 51.9542 29.8987C54.166 29.8987 56.2452 30.7624 57.8126 32.3252C61.0434 35.556 61.0434 40.8112 57.8126 44.042Z" fill="#E5E5EC"/>
</svg>
