<svg width="87" height="86" viewBox="0 0 87 86" fill="none" xmlns="http://www.w3.org/2000/svg">
<rect x="0.5" width="86" height="86" rx="43" fill="#E6FCFB"/>
<path d="M61.6515 28.8614C59.0787 26.2886 55.7017 25 52.3292 25C48.9568 25 45.5798 26.2886 43.007 28.8614C40.4343 26.2886 37.0572 25 33.6848 25C30.3123 25 26.9353 26.2886 24.3626 28.8614C19.2125 34.0115 19.2125 42.3603 24.3626 47.5104L43.0116 66.1595L61.6606 47.5104C66.8107 42.3603 66.8107 34.0115 61.6606 28.8614H61.6515ZM27.8218 32.3298C29.3847 30.767 31.4685 29.9033 33.6802 29.9033C35.892 29.9033 37.9712 30.7624 39.534 32.3298L29.8965 41.9674C29.1608 42.7031 28.6078 43.5485 28.2285 44.4533L27.8218 44.0466C26.259 42.4837 25.3953 40.3999 25.3953 38.1882C25.3953 35.9765 26.259 33.8972 27.8218 32.3298ZM52.6445 49.5485L42.9842 59.2089L38.4601 54.6849C39.3649 54.3056 40.2103 53.7527 40.9461 53.0169L44.122 49.841L46.9507 47.0123L48.5272 45.4358C49.6605 44.3025 51.5067 44.3025 52.6445 45.4358C53.7778 46.5691 53.7778 48.4152 52.6445 49.5531V49.5485ZM58.1876 44.042L57.7809 44.4487C57.4016 43.5439 56.8487 42.6985 56.113 41.9628C53.065 38.9148 48.1114 38.9148 45.0634 41.9628L43.4868 43.5394L40.6582 46.368L37.4822 49.5439C36.3489 50.6772 34.5028 50.6772 33.3649 49.5439C32.2316 48.4107 32.2316 46.5645 33.3649 45.4266L43.0024 35.7891L46.4709 32.3252C48.0337 30.7624 50.1175 29.8987 52.3292 29.8987C54.541 29.8987 56.6202 30.7624 58.1876 32.3252C61.4184 35.556 61.4184 40.8112 58.1876 44.042Z" fill="#00D9D5"/>
</svg>
