<svg width="50" height="50" viewBox="0 0 50 50" fill="none" xmlns="http://www.w3.org/2000/svg">
<path d="M33.3341 0H16.6659C7.46157 0 0 7.46158 0 16.6659V33.3341C0 42.5384 7.46157 50 16.6659 50H33.3341C42.5384 50 50 42.5384 50 33.3341V16.6659C50 7.46158 42.5384 0 33.3341 0Z" fill="#EAF5F1"/>
<path d="M18.8637 24.175C18.5568 23.8682 18.5568 23.3728 18.8637 23.066L30.3387 11.591C30.6455 11.2841 31.1409 11.2841 31.4477 11.591C31.7546 11.8978 31.7546 12.3932 31.4477 12.7L19.9728 24.175C19.6659 24.4819 19.1705 24.4819 18.8637 24.175Z" fill="#27C590"/>
<path d="M21.4205 28.3271C21.1137 28.0203 21.1137 27.5249 21.4205 27.2181L34.491 14.1476C34.7978 13.8408 35.2933 13.8408 35.6001 14.1476C35.9069 14.4544 35.9069 14.9499 35.6001 15.2567L22.5296 28.3271C22.2228 28.634 21.7274 28.634 21.4205 28.3271Z" fill="#27C590"/>
<path d="M25.5751 30.8865C25.2683 30.5797 25.2683 30.0842 25.5751 29.7774L37.0501 18.3024C37.3569 17.9956 37.8524 17.9956 38.1592 18.3024C38.466 18.6092 38.466 19.1047 38.1592 19.4115L26.6842 30.8865C26.3774 31.1933 25.8819 31.1933 25.5751 30.8865Z" fill="#27C590"/>
<path d="M36.566 23.9182L25.9069 13.2591C25.6001 12.9523 25.6001 12.4569 25.9069 12.15C26.2137 11.8432 26.7091 11.8432 27.016 12.15L37.6751 22.8091C37.9819 23.1159 37.9819 23.6114 37.6751 23.9182C37.3682 24.225 36.8728 24.225 36.566 23.9182Z" fill="#27C590"/>
<path d="M33.2339 27.2503L22.5748 16.5912C22.268 16.2843 22.268 15.7889 22.5748 15.4821C22.8817 15.1752 23.3771 15.1752 23.6839 15.4821L34.343 26.1412C34.6498 26.448 34.6498 26.9434 34.343 27.2503C34.0362 27.5571 33.5408 27.5571 33.2339 27.2503Z" fill="#27C590"/>
<path d="M29.2704 29.9547L19.8727 20.557C19.5659 20.2502 19.5659 19.7547 19.8727 19.4479C20.1795 19.1411 20.675 19.1411 20.9818 19.4479L30.3795 28.8456C30.6863 29.1524 30.6863 29.6479 30.3795 29.9547C30.0727 30.2615 29.5772 30.2615 29.2704 29.9547Z" fill="#27C590"/>
<path d="M36.6068 13.2184C32.5205 9.13202 25.8 9.22975 21.0159 14.0138C17.2159 17.8138 16.5318 22.6752 18.4568 26.5638C19.025 27.7116 18.8023 29.0934 17.8977 29.9979L16.6318 31.2638L18.8114 33.4434L20.1659 32.0888C21.0477 31.207 22.3886 30.9684 23.5205 31.4911C27.3636 33.2616 32.0977 32.5229 35.8136 28.807C40.5977 24.0229 40.6954 17.3025 36.6091 13.2161L36.6068 13.2184ZM24.8795 28.5388C23.9682 28.1184 21.8205 26.0297 21.3705 25.1207C19.9682 22.2888 20.7136 18.9138 23.3136 16.3138C25.0182 14.6093 27.1091 13.6229 29.2 13.5411C31.1386 13.4638 32.95 14.1661 34.3046 15.5207C37.2114 18.4275 36.8705 23.1525 33.5091 26.5116C30.9364 29.0866 27.7091 29.8434 24.8773 28.5388H24.8795Z" fill="white"/>
<path d="M10.9285 34.6995L10.4158 35.2121C10.1886 35.4393 10.1886 35.8077 10.4158 36.0349L14.0365 39.6557C14.2637 39.8829 14.6321 39.8829 14.8593 39.6556L15.372 39.143C15.5992 38.9158 15.5992 38.5474 15.372 38.3202L11.7513 34.6995C11.5241 34.4723 11.1557 34.4723 10.9285 34.6995Z" fill="#27C590"/>
<path d="M19.9681 32.557L17.5181 30.107C17.1703 29.7593 16.609 29.7593 16.2613 30.107L11.709 34.6593L15.4158 38.3661L19.9681 33.8138C20.3158 33.4661 20.3158 32.9047 19.9681 32.557Z" fill="#27C590"/>
</svg>
