<svg width="32" height="32" viewBox="0 0 32 32" fill="none" xmlns="http://www.w3.org/2000/svg">
<path d="M15.9997 29.5501C8.32635 29.5501 2.08936 23.3131 2.08936 15.6398C2.08936 7.96648 8.32635 1.72949 15.9997 1.72949C23.673 1.72949 29.91 7.96648 29.91 15.6398C29.91 23.3131 23.673 29.5501 15.9997 29.5501ZM15.9997 3.67046C9.40035 3.67046 4.03033 9.04049 4.03033 15.6398C4.03033 22.2391 9.40035 27.6091 15.9997 27.6091C22.599 27.6091 27.969 22.2391 27.969 15.6398C27.969 9.04049 22.599 3.67046 15.9997 3.67046Z" fill="#E9E9E9"/>
<path d="M21.1759 16.6099H10.824C10.2935 16.6099 9.85352 16.17 9.85352 15.6394C9.85352 15.1089 10.2935 14.6689 10.824 14.6689H21.1759C21.7064 14.6689 22.1463 15.1089 22.1463 15.6394C22.1463 16.17 21.7064 16.6099 21.1759 16.6099Z" fill="#E9E9E9"/>
<path d="M15.9998 21.786C15.4693 21.786 15.0293 21.346 15.0293 20.8155V10.4637C15.0293 9.93312 15.4693 9.49316 15.9998 9.49316C16.5303 9.49316 16.9703 9.93312 16.9703 10.4637V20.8155C16.9703 21.346 16.5303 21.786 15.9998 21.786Z" fill="#E9E9E9"/>
</svg>
