<svg width="18" height="21" viewBox="0 0 18 21" fill="none" xmlns="http://www.w3.org/2000/svg">
<path d="M14.498 10.9171C14.4747 8.29812 16.6166 7.04071 16.7112 6.98243C15.5076 5.20296 13.6309 4.95495 12.9652 4.92519C11.3674 4.76274 9.84688 5.8763 9.03873 5.8763C8.23059 5.8763 6.97784 4.95247 5.65631 4.97851C3.91228 5.00207 2.31072 6.00155 1.41292 7.57021C-0.394971 10.7373 0.948666 15.4321 2.71357 18.0003C3.5733 19.2577 4.59884 20.6701 5.94616 20.6192C7.24681 20.5684 7.73808 19.7723 9.30771 19.7723C10.8773 19.7723 11.3182 20.6192 12.6926 20.5982C14.089 20.5684 14.9746 19.311 15.8269 18.0536C16.8144 16.594 17.2246 15.1816 17.2479 15.1072C17.2172 15.0961 14.5238 14.0519 14.4968 10.9171L14.498 10.9171Z" fill="#111111"/>
<path d="M12.0345 3.39367C12.882 2.49557 13.4523 1.2446 13.2956 -1.32762e-08C12.078 0.0407648 10.6021 0.714659 9.72994 1.60894C8.94482 2.40767 8.25549 3.68412 8.4427 4.90197C9.7996 4.99242 11.1913 4.29432 12.0345 3.39367Z" fill="#111111"/>
</svg>
