<svg width="24" height="25" viewBox="0 0 24 25" fill="none" xmlns="http://www.w3.org/2000/svg">
<path d="M22 5.65611V17.5461C22 18.5161 21.21 19.4061 20.24 19.5261L19.93 19.5661C18.29 19.7861 15.98 20.4661 14.12 21.2461C13.47 21.5161 12.75 21.0261 12.75 20.3161V6.40611C12.75 6.03611 12.96 5.69611 13.29 5.51611C15.12 4.52611 17.89 3.64611 19.77 3.48611H19.83C21.03 3.48611 22 4.45611 22 5.65611Z" fill="#111111"/>
<path d="M10.71 5.51611C8.87999 4.52611 6.10999 3.64611 4.22999 3.48611H4.15999C2.95999 3.48611 1.98999 4.45611 1.98999 5.65611V17.5461C1.98999 18.5161 2.77999 19.4061 3.74999 19.5261L4.05999 19.5661C5.69999 19.7861 8.00999 20.4661 9.86999 21.2461C10.52 21.5161 11.24 21.0261 11.24 20.3161V6.40611C11.24 6.02611 11.04 5.69611 10.71 5.51611ZM4.99999 8.54611H7.24999C7.65999 8.54611 7.99999 8.88611 7.99999 9.29611C7.99999 9.71611 7.65999 10.0461 7.24999 10.0461H4.99999C4.58999 10.0461 4.24999 9.71611 4.24999 9.29611C4.24999 8.88611 4.58999 8.54611 4.99999 8.54611ZM7.99999 13.0461H4.99999C4.58999 13.0461 4.24999 12.7161 4.24999 12.2961C4.24999 11.8861 4.58999 11.5461 4.99999 11.5461H7.99999C8.40999 11.5461 8.74999 11.8861 8.74999 12.2961C8.74999 12.7161 8.40999 13.0461 7.99999 13.0461Z" fill="#111111"/>
</svg>
