<svg width="24" height="24" viewBox="0 0 24 24" fill="none" xmlns="http://www.w3.org/2000/svg">
<path fill-rule="evenodd" clip-rule="evenodd" d="M5.94767 4.28105C6.44777 3.78095 7.12605 3.5 7.83329 3.5H16.1666C16.8739 3.5 17.5521 3.78095 18.0522 4.28105C18.5523 4.78115 18.8333 5.45942 18.8333 6.16667V19.5C18.8333 19.8746 18.6239 20.2178 18.2909 20.3892C17.9578 20.5606 17.5569 20.5315 17.2521 20.3137L12 16.5622L6.74786 20.3137C6.44305 20.5315 6.04212 20.5606 5.70904 20.3892C5.37597 20.2178 5.16663 19.8746 5.16663 19.5V6.16667C5.16663 5.45942 5.44758 4.78115 5.94767 4.28105ZM7.83329 5.5C7.65648 5.5 7.48691 5.57024 7.36189 5.69526C7.23686 5.82029 7.16663 5.98986 7.16663 6.16667V17.5568L11.4187 14.5196C11.7664 14.2712 12.2335 14.2712 12.5812 14.5196L16.8333 17.5568V6.16667C16.8333 5.98986 16.7631 5.82029 16.638 5.69526C16.513 5.57024 16.3434 5.5 16.1666 5.5H7.83329Z" fill="#E5E5EC"/>
</svg>
