<svg width="31" height="30" viewBox="0 0 31 30" fill="none" xmlns="http://www.w3.org/2000/svg">
<rect x="1.25" y="0.75" width="28.5" height="28.5" rx="14.25" fill="#CCCCCC"/>
<rect x="1.25" y="0.75" width="28.5" height="28.5" rx="14.25" stroke="white" stroke-width="1.5"/>
<path d="M19.5 10.9999C19.0933 10.9999 18.72 10.7666 18.5333 10.4066L18.0533 9.43992C17.7467 8.83325 16.9467 8.33325 16.2667 8.33325H14.74C14.0533 8.33325 13.2533 8.83325 12.9467 9.43992L12.4667 10.4066C12.28 10.7666 11.9067 10.9999 11.5 10.9999C10.0533 10.9999 8.90668 12.2199 9.00001 13.6599L9.34668 19.1666C9.42668 20.5399 10.1667 21.6666 12.0067 21.6666H18.9933C20.8333 21.6666 21.5667 20.5399 21.6533 19.1666L22 13.6599C22.0933 12.2199 20.9467 10.9999 19.5 10.9999ZM14.5 11.8333H16.5C16.7733 11.8333 17 12.0599 17 12.3333C17 12.6066 16.7733 12.8333 16.5 12.8333H14.5C14.2267 12.8333 14 12.6066 14 12.3333C14 12.0599 14.2267 11.8333 14.5 11.8333ZM15.5 19.0799C14.26 19.0799 13.2467 18.0733 13.2467 16.8266C13.2467 15.5799 14.2533 14.5733 15.5 14.5733C16.7467 14.5733 17.7533 15.5799 17.7533 16.8266C17.7533 18.0733 16.74 19.0799 15.5 19.0799Z" fill="white"/>
</svg>
