<svg width="20" height="20" viewBox="0 0 20 20" fill="none" xmlns="http://www.w3.org/2000/svg">
<path d="M13.4915 1.6665H6.50817C3.47484 1.6665 1.6665 3.47484 1.6665 6.50817V13.4832C1.6665 16.5248 3.47484 18.3332 6.50817 18.3332H13.4832C16.5165 18.3332 18.3248 16.5248 18.3248 13.4915V6.50817C18.3332 3.47484 16.5248 1.6665 13.4915 1.6665ZM7.5915 14.0832C7.5915 14.3165 7.40817 14.4998 7.17484 14.4998H4.84984C4.6165 14.4998 4.43317 14.3165 4.43317 14.0832V10.2332C4.43317 9.70817 4.85817 9.28317 5.38317 9.28317H7.17484C7.40817 9.28317 7.5915 9.4665 7.5915 9.69984V14.0832ZM11.5748 14.0832C11.5748 14.3165 11.3915 14.4998 11.1582 14.4998H8.83317C8.59984 14.4998 8.4165 14.3165 8.4165 14.0832V6.44984C8.4165 5.92484 8.8415 5.49984 9.3665 5.49984H10.6332C11.1582 5.49984 11.5832 5.92484 11.5832 6.44984V14.0832H11.5748ZM15.5665 14.0832C15.5665 14.3165 15.3832 14.4998 15.1498 14.4998H12.8248C12.5915 14.4998 12.4082 14.3165 12.4082 14.0832V11.1248C12.4082 10.8915 12.5915 10.7082 12.8248 10.7082H14.6165C15.1415 10.7082 15.5665 11.1332 15.5665 11.6582V14.0832Z" fill="#6B7280"/>
</svg>
