<svg width="20" height="20" viewBox="0 0 20 20" fill="none" xmlns="http://www.w3.org/2000/svg">
<path fill-rule="evenodd" clip-rule="evenodd" d="M1.6665 9.99984C1.6665 5.40034 5.40034 1.6665 9.99984 1.6665C14.5993 1.6665 18.3227 5.40034 18.3332 9.99984C18.3332 14.5993 14.5993 18.3332 9.99984 18.3332C5.40034 18.3332 1.6665 14.5993 1.6665 9.99984Z" fill="#6B7280"/>
<path d="M11.4631 14.1659C11.45 14.1659 11.4369 14.1659 11.4238 14.1659C11.0395 14.1484 10.7141 13.882 10.618 13.5108L10.0198 11.1854L9.42148 13.5108C9.3254 13.882 8.99788 14.1484 8.61576 14.1659C8.2271 14.1855 7.8821 13.9475 7.75327 13.5872L5.6964 7.83366C5.53482 7.37949 5.77064 6.87946 6.22481 6.71788C6.67898 6.5563 7.17901 6.79212 7.34059 7.2463L8.4389 10.3185L9.17474 7.46465C9.27518 7.07816 9.62236 6.80959 10.0198 6.80959C10.4172 6.80959 10.7665 7.08035 10.8648 7.46465L11.6006 10.3185L12.6989 7.2463C12.8605 6.79212 13.3605 6.5563 13.8147 6.71788C14.2689 6.87946 14.5047 7.37949 14.3431 7.83366L12.2863 13.5872C12.1618 13.9366 11.8321 14.1659 11.4631 14.1659Z" fill="white"/>
<path d="M7.31638 10.6462H5.51061C5.02806 10.6462 4.63721 10.2554 4.63721 9.77282C4.63721 9.29026 5.02806 8.89941 5.51061 8.89941H7.31638C7.79894 8.89941 8.18979 9.29026 8.18979 9.77282C8.18979 10.2554 7.79894 10.6462 7.31638 10.6462Z" fill="white"/>
<path d="M14.5263 10.6462H12.7206C12.238 10.6462 11.8472 10.2554 11.8472 9.77282C11.8472 9.29026 12.238 8.89941 12.7206 8.89941H14.5263C15.0089 8.89941 15.3997 9.29026 15.3997 9.77282C15.3997 10.2554 15.0089 10.6462 14.5263 10.6462Z" fill="white"/>
</svg>
