<svg width="21" height="21" viewBox="0 0 21 21" fill="none" xmlns="http://www.w3.org/2000/svg">
<path d="M10.7498 2.16669C6.15817 2.16669 2.4165 5.90835 2.4165 10.5C2.4165 15.0917 6.15817 18.8334 10.7498 18.8334C15.3415 18.8334 19.0832 15.0917 19.0832 10.5C19.0832 5.90835 15.3415 2.16669 10.7498 2.16669ZM14.7332 8.58335L10.0082 13.3084C9.8915 13.425 9.73317 13.4917 9.5665 13.4917C9.39984 13.4917 9.2415 13.425 9.12484 13.3084L6.7665 10.95C6.52484 10.7084 6.52484 10.3084 6.7665 10.0667C7.00817 9.82502 7.40817 9.82502 7.64984 10.0667L9.5665 11.9834L13.8498 7.70002C14.0915 7.45835 14.4915 7.45835 14.7332 7.70002C14.9748 7.94169 14.9748 8.33335 14.7332 8.58335Z" fill="#0ECA20"/>
</svg>
