<svg width="21" height="21" viewBox="0 0 21 21" fill="none" xmlns="http://www.w3.org/2000/svg">
<path d="M10.2498 2.16669C5.65817 2.16669 1.9165 5.90835 1.9165 10.5C1.9165 15.0917 5.65817 18.8334 10.2498 18.8334C14.8415 18.8334 18.5832 15.0917 18.5832 10.5C18.5832 5.90835 14.8415 2.16669 10.2498 2.16669ZM9.62484 7.16669C9.62484 6.82502 9.90817 6.54169 10.2498 6.54169C10.5915 6.54169 10.8748 6.82502 10.8748 7.16669V11.3334C10.8748 11.675 10.5915 11.9584 10.2498 11.9584C9.90817 11.9584 9.62484 11.675 9.62484 11.3334V7.16669ZM11.0165 14.15C10.9748 14.2584 10.9165 14.3417 10.8415 14.425C10.7582 14.5 10.6665 14.5584 10.5665 14.6C10.4665 14.6417 10.3582 14.6667 10.2498 14.6667C10.1415 14.6667 10.0332 14.6417 9.93317 14.6C9.83317 14.5584 9.7415 14.5 9.65817 14.425C9.58317 14.3417 9.52484 14.2584 9.48317 14.15C9.4415 14.05 9.4165 13.9417 9.4165 13.8334C9.4165 13.725 9.4415 13.6167 9.48317 13.5167C9.52484 13.4167 9.58317 13.325 9.65817 13.2417C9.7415 13.1667 9.83317 13.1084 9.93317 13.0667C10.1332 12.9834 10.3665 12.9834 10.5665 13.0667C10.6665 13.1084 10.7582 13.1667 10.8415 13.2417C10.9165 13.325 10.9748 13.4167 11.0165 13.5167C11.0582 13.6167 11.0832 13.725 11.0832 13.8334C11.0832 13.9417 11.0582 14.05 11.0165 14.15Z" fill="#F83434"/>
</svg>
