<svg width="50" height="50" viewBox="0 0 50 50" fill="none" xmlns="http://www.w3.org/2000/svg">
<path d="M33.3341 0H16.6659C7.46158 0 0 7.46158 0 16.6659V33.3341C0 42.5384 7.46158 50 16.6659 50H33.3341C42.5384 50 50 42.5384 50 33.3341V16.6659C50 7.46158 42.5384 0 33.3341 0Z" fill="#FBE4D9"/>
<path d="M34.9454 21.0771H24.7159C23.15 21.0771 21.8795 22.3476 21.8795 23.9135V32.0817C21.8795 33.6476 23.15 34.9181 24.7159 34.9181H28.4432C29.3318 36.5271 31.3227 38.5385 33.9318 39.409C33.9318 39.409 32.1454 37.384 31.8613 34.9181H34.9454C36.5113 34.9181 37.7818 33.6476 37.7818 32.0817V23.9135C37.7818 22.3476 36.5113 21.0771 34.9454 21.0771Z" fill="white"/>
<path d="M27.6023 31.0092C27.3273 31.0092 27.0591 30.866 26.9137 30.6114C26.6932 30.2319 26.8251 29.7455 27.2046 29.5251C27.216 29.5183 28.4614 28.7773 28.825 27.6751C28.9228 27.3796 28.9864 27.1023 29.0296 26.8683H27.0955C26.6569 26.8683 26.3 26.5114 26.3 26.0728C26.3 25.6342 26.6569 25.2773 27.0955 25.2773H29.9069C30.3387 25.2773 30.6932 25.6228 30.7023 26.0569C30.7023 26.0955 30.7182 27.0228 30.3364 28.1751C29.7796 29.8614 28.0728 30.8637 28.0001 30.9046C27.8751 30.9773 27.7387 31.0114 27.6023 31.0114V31.0092Z" fill="#F9D2C0"/>
<path d="M32.0136 31.4886C31.575 31.4886 31.2181 31.1317 31.2181 30.6931V25.3931C31.2181 24.9545 31.575 24.5977 32.0136 24.5977C32.4522 24.5977 32.809 24.9545 32.809 25.3931V30.6931C32.809 31.1317 32.4522 31.4886 32.0136 31.4886Z" fill="#F9D2C0"/>
<path d="M33.3432 28.2247H32.0591C31.6205 28.2247 31.2637 27.8679 31.2637 27.4292C31.2637 26.9906 31.6205 26.6338 32.0591 26.6338H33.3432C33.7819 26.6338 34.1387 26.9906 34.1387 27.4292C34.1387 27.8679 33.7819 28.2247 33.3432 28.2247Z" fill="#F9D2C0"/>
<path d="M14.7182 13.7295H24.9477C26.5136 13.7295 27.7841 14.9999 27.7841 16.5659V24.734C27.7841 26.2999 26.5136 27.5704 24.9477 27.5704H21.2205C20.3318 29.1795 18.3409 31.1909 15.7318 32.0613C15.7318 32.0613 17.5182 30.0363 17.8023 27.5704H14.7182C13.1523 27.5704 11.8818 26.2999 11.8818 24.734V16.5659C11.8818 14.9999 13.1523 13.7295 14.7182 13.7295Z" fill="#EF6250"/>
<path d="M17.4 23.8136C17.2841 23.8136 17.1659 23.7886 17.0546 23.7341C16.6591 23.5432 16.4932 23.0682 16.6841 22.6727L19.1159 17.6272C19.2477 17.3522 19.5273 17.1772 19.8318 17.1772C20.1364 17.1772 20.4159 17.3522 20.5477 17.6272L22.9796 22.6727C23.1705 23.0682 23.0045 23.5432 22.6091 23.7341C22.2136 23.925 21.7386 23.7591 21.5477 23.3636L19.8318 19.8045L18.1159 23.3636C17.9795 23.6477 17.6955 23.8136 17.3977 23.8136H17.4Z" fill="white"/>
<path d="M21.384 22.5636H18.2386C17.7999 22.5636 17.4431 22.2067 17.4431 21.7681C17.4431 21.3295 17.7999 20.9727 18.2386 20.9727H21.384C21.8227 20.9727 22.1795 21.3295 22.1795 21.7681C22.1795 22.2067 21.8227 22.5636 21.384 22.5636Z" fill="white"/>
</svg>
