<svg width="50" height="50" viewBox="0 0 50 50" fill="none" xmlns="http://www.w3.org/2000/svg">
<path d="M33.3341 0H16.6659C7.46159 0 0 7.46158 0 16.6659V33.3341C0 42.5384 7.46159 50 16.6659 50H33.3341C42.5384 50 50 42.5384 50 33.3341V16.6659C50 7.46158 42.5384 0 33.3341 0Z" fill="#F1DAF8"/>
<path d="M23.789 15.8475L14.3909 25.2456L24.578 35.4328L33.9761 26.0347L23.789 15.8475Z" fill="#BF51ED"/>
<path d="M25.3699 14.2653L23.7886 15.8467L33.9757 26.0338L35.5571 24.4525L25.3699 14.2653Z" fill="white"/>
<path d="M35.5568 24.4524L25.3682 14.2638L26.6886 12.9434C27.8182 11.8138 29.65 11.8138 30.7795 12.9434L36.875 19.0388C38.0045 20.1683 38.0045 22.0002 36.875 23.1297L35.5545 24.4502L35.5568 24.4524Z" fill="#C686EF"/>
<path d="M24.5795 35.4318L14.3909 25.2432L12.3 35.8386C12.1023 36.8386 12.9818 37.7182 13.9818 37.5204L24.5773 35.4295L24.5795 35.4318Z" fill="white"/>
<path d="M13.9819 37.5228L18.9046 36.5501L13.2705 30.916L12.2978 35.8387C12.1001 36.8387 12.9796 37.7183 13.9796 37.5206L13.9819 37.5228Z" fill="#BF51ED"/>
<path d="M20.2273 27.1522C19.9523 27.1522 19.675 27.0477 19.4637 26.8363C19.0432 26.4158 19.0432 25.7318 19.4637 25.3113L24.2023 20.5727C24.6227 20.1522 25.3068 20.1522 25.7273 20.5727C26.1477 20.9931 26.1477 21.6772 25.7273 22.0977L20.9886 26.8363C20.7773 27.0477 20.5023 27.1522 20.225 27.1522H20.2273Z" fill="#E7C1F4"/>
<path d="M23.7477 30.6752C23.4727 30.6752 23.1954 30.5706 22.984 30.3593C22.5636 29.9388 22.5636 29.2547 22.984 28.8343L27.7227 24.0956C28.1431 23.6752 28.8272 23.6752 29.2477 24.0956C29.6681 24.5161 29.6681 25.2002 29.2477 25.6206L24.509 30.3593C24.2977 30.5706 24.0227 30.6752 23.7454 30.6752H23.7477Z" fill="#E7C1F4"/>
</svg>
