<svg width="15" height="20" viewBox="0 0 15 20" fill="none" xmlns="http://www.w3.org/2000/svg">
<path d="M7.28709 0C5.8196 0.595493 5.20828 2.10456 5.72094 3.30248C6.26043 4.56302 7.21392 5.30537 7.66192 6.21991C7.81358 6.5296 7.90741 6.85914 7.90741 7.23515C7.90741 8.33399 6.98759 9.22465 5.85277 9.22465C4.71795 9.22465 3.79812 8.33399 3.79812 7.23515C3.79812 7.23096 3.79812 7.22676 3.79829 7.22241C3.79929 7.07942 3.81679 6.94031 3.84729 6.80604C3.96262 5.98833 4.30812 5.00472 3.71446 4.60821C3.2213 6.26429 0 8.71388 0 12.7189C0 15.9038 2.11864 18.6071 5.06511 19.5861C5.20078 19.6311 5.33794 19.6727 5.47694 19.7103C5.48144 19.714 5.48577 19.7176 5.49027 19.7213C6.1276 19.9027 6.80209 20 7.49992 20C8.19774 20 8.8669 19.9033 9.50189 19.7234C9.50656 19.7195 9.51123 19.7156 9.51606 19.7118C9.66123 19.6726 9.80456 19.6293 9.94606 19.582C12.8867 18.6002 15 15.8998 15 12.7187C14.9998 5.56358 6.1156 2.92033 7.28709 0Z" fill="url(#paint0_linear_901_13725)"/>
<defs>
<linearGradient id="paint0_linear_901_13725" x1="7.5" y1="0" x2="7.5" y2="20" gradientUnits="userSpaceOnUse">
<stop stop-color="#F44465"/>
<stop offset="1" stop-color="#F31D43"/>
</linearGradient>
</defs>
</svg>
