<svg width="28" height="28" viewBox="0 0 28 28" fill="none" xmlns="http://www.w3.org/2000/svg">
<path d="M19.635 18.2468C20.4166 17.7335 21.4433 18.2935 21.4433 19.2268V20.7318C21.4433 22.2135 20.2883 23.8002 18.9 24.2668L15.1783 25.5035C14.525 25.7252 13.4633 25.7252 12.8216 25.5035L9.09997 24.2668C7.69997 23.8002 6.55664 22.2135 6.55664 20.7318V19.2152C6.55664 18.2935 7.58331 17.7335 8.35331 18.2352L10.7566 19.7985C11.6783 20.4168 12.845 20.7202 14.0116 20.7202C15.1783 20.7202 16.345 20.4168 17.2666 19.7985L19.635 18.2468Z" fill="#00D9D5"/>
<path d="M23.31 7.53633L16.3217 2.95133C15.0617 2.12299 12.985 2.12299 11.725 2.95133L4.70169 7.53633C2.45002 8.99466 2.45002 12.2963 4.70169 13.7663L6.56836 14.9797L11.725 18.3397C12.985 19.168 15.0617 19.168 16.3217 18.3397L21.4434 14.9797L23.0417 13.9297V17.4997C23.0417 17.978 23.4384 18.3747 23.9167 18.3747C24.395 18.3747 24.7917 17.978 24.7917 17.4997V11.7597C25.2584 10.2547 24.78 8.50466 23.31 7.53633Z" fill="#00D9D5"/>
</svg>
