<svg width="28" height="28" viewBox="0 0 28 28" fill="none" xmlns="http://www.w3.org/2000/svg">
<path d="M19.8333 2.33325H8.16667C4.94667 2.33325 2.33333 4.93492 2.33333 8.14325V15.1199V16.2866C2.33333 19.4949 4.94667 22.0966 8.16667 22.0966H9.91667C10.2317 22.0966 10.6517 22.3066 10.85 22.5633L12.6 24.8849C13.37 25.9116 14.63 25.9116 15.4 24.8849L17.15 22.5633C17.3717 22.2716 17.7217 22.0966 18.0833 22.0966H19.8333C23.0533 22.0966 25.6667 19.4949 25.6667 16.2866V8.14325C25.6667 4.93492 23.0533 2.33325 19.8333 2.33325ZM9.33333 13.9999C8.68 13.9999 8.16667 13.4749 8.16667 12.8333C8.16667 12.1916 8.69167 11.6666 9.33333 11.6666C9.975 11.6666 10.5 12.1916 10.5 12.8333C10.5 13.4749 9.98667 13.9999 9.33333 13.9999ZM14 13.9999C13.3467 13.9999 12.8333 13.4749 12.8333 12.8333C12.8333 12.1916 13.3583 11.6666 14 11.6666C14.6417 11.6666 15.1667 12.1916 15.1667 12.8333C15.1667 13.4749 14.6533 13.9999 14 13.9999ZM18.6667 13.9999C18.0133 13.9999 17.5 13.4749 17.5 12.8333C17.5 12.1916 18.025 11.6666 18.6667 11.6666C19.3083 11.6666 19.8333 12.1916 19.8333 12.8333C19.8333 13.4749 19.32 13.9999 18.6667 13.9999Z" fill="#D3D3D3"/>
</svg>
