<svg width="28" height="28" viewBox="0 0 28 28" fill="none" xmlns="http://www.w3.org/2000/svg">
<path d="M24.3017 9.3447L16.66 3.23136C15.1667 2.04136 12.8333 2.0297 11.3517 3.2197L3.71 9.3447C2.61333 10.2197 1.94833 11.9697 2.18166 13.3464L3.65166 22.143C3.99 24.1147 5.82166 25.6664 7.81666 25.6664H20.1833C22.155 25.6664 24.0217 24.0797 24.36 22.1314L25.83 13.3347C26.04 11.9697 25.375 10.2197 24.3017 9.3447ZM14.875 20.9997C14.875 21.478 14.4783 21.8747 14 21.8747C13.5217 21.8747 13.125 21.478 13.125 20.9997V17.4997C13.125 17.0214 13.5217 16.6247 14 16.6247C14.4783 16.6247 14.875 17.0214 14.875 17.4997V20.9997Z" fill="#D3D3D3"/>
</svg>
