<svg width="28" height="28" viewBox="0 0 28 28" fill="none" xmlns="http://www.w3.org/2000/svg">
<path d="M25.6435 18.2585C24.6868 17.0802 23.2285 16.3335 21.5835 16.3335C20.3468 16.3335 19.2035 16.7652 18.3052 17.4885C17.0918 18.4452 16.3335 19.9268 16.3335 21.5835C16.3335 22.5635 16.6135 23.4968 17.0918 24.2902C17.4068 24.8152 17.8035 25.2702 18.2702 25.6435H18.2818C19.1802 26.3902 20.3352 26.8335 21.5835 26.8335C22.9135 26.8335 24.1152 26.3435 25.0368 25.5268C25.4452 25.1768 25.7952 24.7568 26.0752 24.2902C26.5535 23.4968 26.8335 22.5635 26.8335 21.5835C26.8335 20.3235 26.3902 19.1568 25.6435 18.2585ZM24.2202 20.9302L21.4202 23.5202C21.2568 23.6718 21.0352 23.7535 20.8252 23.7535C20.6035 23.7535 20.3818 23.6718 20.2068 23.4968L18.9118 22.2018C18.5735 21.8635 18.5735 21.3035 18.9118 20.9652C19.2502 20.6268 19.8102 20.6268 20.1485 20.9652L20.8485 21.6652L23.0302 19.6468C23.3802 19.3202 23.9402 19.3435 24.2668 19.6935C24.6052 20.0552 24.5818 20.6035 24.2202 20.9302Z" fill="#D3D3D3"/>
<path d="M17.1849 6.83683V2.91683C17.1849 2.59016 16.9283 2.3335 16.6016 2.3335H11.3983C11.0716 2.3335 10.8149 2.59016 10.8149 2.91683V6.83683C10.8149 7.1635 11.0716 7.42016 11.3983 7.42016H16.6016C16.9283 7.42016 17.1849 7.1635 17.1849 6.83683Z" fill="#D3D3D3"/>
<path d="M8.45839 2.35683C5.47172 2.5435 3.43006 4.0835 2.67172 6.65016C2.55506 7.03516 2.83506 7.42016 3.23172 7.42016H8.48172C8.80839 7.42016 9.06506 7.1635 9.06506 6.83683V2.94016C9.06506 2.6135 8.78506 2.3335 8.45839 2.35683Z" fill="#D3D3D3"/>
<path d="M19.5417 2.34511C22.5284 2.53178 24.5701 4.07178 25.3284 6.63844C25.4451 7.02344 25.1651 7.40844 24.7684 7.40844H19.5184C19.1917 7.40844 18.9351 7.15178 18.9351 6.82511V2.92844C18.9351 2.60178 19.2151 2.32178 19.5417 2.34511Z" fill="#D3D3D3"/>
<path d="M25.6668 9.75325V14.8633C25.6668 15.2949 25.2118 15.5749 24.8268 15.3766C23.8468 14.8633 22.7268 14.5833 21.5835 14.5833C19.7052 14.5833 17.8735 15.3533 16.5668 16.6949C15.2835 18.0016 14.5835 19.7399 14.5835 21.5833C14.5835 22.5283 14.9568 23.7416 15.4235 24.7566C15.6102 25.1649 15.3302 25.6666 14.8752 25.6666H9.11183C5.36683 25.6666 2.3335 22.6333 2.3335 18.8883V9.75325C2.3335 9.42659 2.59016 9.16992 2.91683 9.16992H25.0835C25.4102 9.16992 25.6668 9.42659 25.6668 9.75325Z" fill="#D3D3D3"/>
</svg>
