<svg width="28" height="28" viewBox="0 0 28 28" fill="none" xmlns="http://www.w3.org/2000/svg">
<path d="M25.6433 18.2584C24.6866 17.08 23.2283 16.3334 21.5833 16.3334C20.3466 16.3334 19.2033 16.765 18.3049 17.4884C17.0916 18.445 16.3333 19.9267 16.3333 21.5834C16.3333 22.5634 16.6133 23.4967 17.0916 24.29C17.4066 24.815 17.8033 25.27 18.2699 25.6434H18.2816C19.1799 26.39 20.3349 26.8334 21.5833 26.8334C22.9133 26.8334 24.1149 26.3434 25.0366 25.5267C25.4449 25.1767 25.7949 24.7567 26.0749 24.29C26.5533 23.4967 26.8333 22.5634 26.8333 21.5834C26.8333 20.3234 26.3899 19.1567 25.6433 18.2584ZM24.2199 20.93L21.4199 23.52C21.2566 23.6717 21.0349 23.7534 20.8249 23.7534C20.6033 23.7534 20.3816 23.6717 20.2066 23.4967L18.9116 22.2017C18.5733 21.8634 18.5733 21.3034 18.9116 20.965C19.2499 20.6267 19.8099 20.6267 20.1483 20.965L20.8483 21.665L23.0299 19.6467C23.3799 19.32 23.9399 19.3434 24.2666 19.6934C24.6049 20.055 24.5816 20.6034 24.2199 20.93Z" fill="#00D9D5"/>
<path d="M17.1849 6.83671V2.91671C17.1849 2.59004 16.9283 2.33337 16.6016 2.33337H11.3983C11.0716 2.33337 10.8149 2.59004 10.8149 2.91671V6.83671C10.8149 7.16337 11.0716 7.42004 11.3983 7.42004H16.6016C16.9283 7.42004 17.1849 7.16337 17.1849 6.83671Z" fill="#00D9D5"/>
<path d="M8.45839 2.35671C5.47172 2.54337 3.43006 4.08337 2.67172 6.65004C2.55506 7.03504 2.83506 7.42004 3.23172 7.42004H8.48172C8.80839 7.42004 9.06506 7.16337 9.06506 6.83671V2.94004C9.06506 2.61337 8.78506 2.33337 8.45839 2.35671Z" fill="#00D9D5"/>
<path d="M19.5417 2.34499C22.5284 2.53166 24.5701 4.07166 25.3284 6.63832C25.4451 7.02332 25.1651 7.40832 24.7684 7.40832H19.5184C19.1917 7.40832 18.9351 7.15166 18.9351 6.82499V2.92832C18.9351 2.60166 19.2151 2.32166 19.5417 2.34499Z" fill="#00D9D5"/>
<path d="M25.6666 9.75338V14.8634C25.6666 15.295 25.2116 15.575 24.8266 15.3767C23.8466 14.8634 22.7266 14.5834 21.5833 14.5834C19.7049 14.5834 17.8733 15.3534 16.5666 16.695C15.2833 18.0017 14.5833 19.74 14.5833 21.5834C14.5833 22.5284 14.9566 23.7417 15.4233 24.7567C15.6099 25.165 15.3299 25.6667 14.8749 25.6667H9.11159C5.36659 25.6667 2.33325 22.6334 2.33325 18.8884V9.75338C2.33325 9.42671 2.58992 9.17004 2.91659 9.17004H25.0833C25.4099 9.17004 25.6666 9.42671 25.6666 9.75338Z" fill="#00D9D5"/>
</svg>
