<svg width="28" height="28" viewBox="0 0 28 28" fill="none" xmlns="http://www.w3.org/2000/svg">
<path d="M19.8334 2.33301H8.16671C4.94671 2.33301 2.33337 4.93467 2.33337 8.14301V15.1197V16.2863C2.33337 19.4947 4.94671 22.0963 8.16671 22.0963H9.91671C10.2317 22.0963 10.6517 22.3063 10.85 22.563L12.6 24.8847C13.37 25.9113 14.63 25.9113 15.4 24.8847L17.15 22.563C17.3717 22.2713 17.7217 22.0963 18.0834 22.0963H19.8334C23.0534 22.0963 25.6667 19.4947 25.6667 16.2863V8.14301C25.6667 4.93467 23.0534 2.33301 19.8334 2.33301ZM9.33337 13.9997C8.68004 13.9997 8.16671 13.4747 8.16671 12.833C8.16671 12.1913 8.69171 11.6663 9.33337 11.6663C9.97504 11.6663 10.5 12.1913 10.5 12.833C10.5 13.4747 9.98671 13.9997 9.33337 13.9997ZM14 13.9997C13.3467 13.9997 12.8334 13.4747 12.8334 12.833C12.8334 12.1913 13.3584 11.6663 14 11.6663C14.6417 11.6663 15.1667 12.1913 15.1667 12.833C15.1667 13.4747 14.6534 13.9997 14 13.9997ZM18.6667 13.9997C18.0134 13.9997 17.5 13.4747 17.5 12.833C17.5 12.1913 18.025 11.6663 18.6667 11.6663C19.3084 11.6663 19.8334 12.1913 19.8334 12.833C19.8334 13.4747 19.32 13.9997 18.6667 13.9997Z" fill="#00D9D5"/>
</svg>
