<svg width="28" height="28" viewBox="0 0 28 28" fill="none" xmlns="http://www.w3.org/2000/svg">
<path d="M19.635 18.2466C20.4167 17.7333 21.4433 18.2933 21.4433 19.2266V20.7316C21.4433 22.2133 20.2883 23.7999 18.9 24.2666L15.1783 25.5033C14.525 25.7249 13.4633 25.7249 12.8217 25.5033L9.1 24.2666C7.7 23.7999 6.55666 22.2133 6.55666 20.7316V19.2149C6.55666 18.2933 7.58333 17.7333 8.35333 18.2349L10.7567 19.7983C11.6783 20.4166 12.845 20.7199 14.0117 20.7199C15.1783 20.7199 16.345 20.4166 17.2667 19.7983L19.635 18.2466Z" fill="#D3D3D3"/>
<path d="M23.31 7.53657L16.3217 2.95157C15.0617 2.12324 12.985 2.12324 11.725 2.95157L4.70167 7.53657C2.45 8.99491 2.45 12.2966 4.70167 13.7666L6.56833 14.9799L11.725 18.3399C12.985 19.1682 15.0617 19.1682 16.3217 18.3399L21.4433 14.9799L23.0417 13.9299V17.4999C23.0417 17.9782 23.4383 18.3749 23.9167 18.3749C24.395 18.3749 24.7917 17.9782 24.7917 17.4999V11.7599C25.2583 10.2549 24.78 8.50491 23.31 7.53657Z" fill="#D3D3D3"/>
</svg>
