<svg width="16" height="20" viewBox="0 0 16 20" fill="none" xmlns="http://www.w3.org/2000/svg">
<path d="M8.85757 10.3057C5.91926 13.1829 2.9586 16.0821 0 18.9788V1.63226C2.96274 4.53385 5.92009 7.42894 8.85757 10.3057Z" fill="black"/>
<path d="M11.7946 7.44437C11.0774 8.17922 10.3706 8.90431 9.682 9.6099C6.69815 6.68473 3.73955 3.78396 0.748657 0.852295C0.934165 0.876681 1.11843 0.888875 1.29607 0.929112C1.38717 0.949841 1.46791 1.01772 1.55031 1.06933C4.92009 3.16373 8.28904 5.25894 11.6576 7.35414C11.7143 7.3891 11.7685 7.4273 11.7946 7.44437Z" fill="black"/>
<path d="M11.8381 13.1565C11.7711 13.1996 11.7048 13.2435 11.6373 13.2857C8.28782 15.3688 4.93792 17.451 1.58968 19.5356C1.33088 19.697 1.06918 19.823 0.776428 19.7441C3.73047 16.849 6.68782 13.9507 9.65967 11.0377C10.3421 11.7376 11.053 12.4664 11.7636 13.1955C11.7884 13.1821 11.8133 13.1695 11.8381 13.1561V13.1565Z" fill="black"/>
<path d="M15.0365 11.1572C14.2555 11.6559 13.4688 12.1453 12.7454 12.5997C11.9238 11.8303 11.1255 11.0824 10.3081 10.3167C11.1272 9.5477 11.9247 8.79904 12.7445 8.02924C12.9797 8.17637 13.2775 8.36089 13.5744 8.54745C14.0621 8.85431 14.552 9.15792 15.0365 9.46967C15.7263 9.91309 15.7276 10.7158 15.0369 11.1572H15.0365Z" fill="black"/>
</svg>
