<svg width="62" height="62" viewBox="0 0 62 62" fill="none" xmlns="http://www.w3.org/2000/svg">
<rect width="62" height="62" rx="18" fill="white"/>
<path d="M44.2449 25.015L34.4199 17.155C32.4999 15.625 29.4999 15.61 27.5949 17.14L17.7699 25.015C16.3599 26.14 15.5049 28.39 15.8049 30.16L17.6949 41.47C18.1299 44.005 20.4849 46 23.0499 46H38.9499C41.4849 46 43.8849 43.96 44.3199 41.455L46.2099 30.145C46.4799 28.39 45.6249 26.14 44.2449 25.015ZM32.1249 40C32.1249 40.615 31.6149 41.125 30.9999 41.125C30.3849 41.125 29.8749 40.615 29.8749 40V35.5C29.8749 34.885 30.3849 34.375 30.9999 34.375C31.6149 34.375 32.1249 34.885 32.1249 35.5V40Z" fill="#00C0BD"/>
</svg>
