<svg width="36" height="36" viewBox="0 0 36 36" fill="none" xmlns="http://www.w3.org/2000/svg">
<rect width="36" height="36" rx="8.18182" fill="#00D9D5"/>
<path d="M26.2158 10.6895C25.0776 9.56503 23.5827 9 22.0878 9C20.5929 9 19.1008 9.56223 17.9626 10.6867C16.8245 9.56223 15.3295 9 13.8375 9C12.3454 9 10.8505 9.56223 9.70945 10.6895C7.43027 12.9412 7.43027 16.5915 9.70945 18.8432L17.9626 26.9969L26.2158 18.8432C28.495 16.5915 28.495 12.9412 26.2158 10.6895ZM11.244 12.2055C11.9377 11.5202 12.8578 11.1454 13.8375 11.1454C14.8171 11.1454 15.7372 11.523 16.4281 12.2055L12.1613 16.4209C11.8357 16.7425 11.5923 17.1118 11.4224 17.509L11.2412 17.3299C10.5475 16.6446 10.1681 15.7356 10.1681 14.7677C10.1681 13.7999 10.5503 12.8909 11.2412 12.2055H11.244ZM22.2294 19.7355L17.9541 23.9592L15.9524 21.9816C16.3516 21.8166 16.7282 21.5732 17.0538 21.2516L18.4581 19.8642L19.7095 18.6278L20.4089 17.9369C20.91 17.4418 21.7282 17.4418 22.2294 17.9369C22.7305 18.432 22.7305 19.2404 22.2294 19.7355ZM24.6841 17.3271L24.5029 17.5062C24.3359 17.1118 24.0895 16.7397 23.7639 16.4181C22.4162 15.0866 20.222 15.0866 18.8743 16.4181L18.175 17.109L16.9236 18.3453L15.5192 19.7327C15.0181 20.2278 14.1999 20.2278 13.6987 19.7327C13.1976 19.2376 13.1976 18.4292 13.6987 17.9341L17.9655 13.7188L19.5 12.2027C20.1937 11.5174 21.1139 11.1426 22.0935 11.1426C23.0731 11.1426 23.9933 11.5202 24.6869 12.2027C26.1167 13.6153 26.1167 15.9118 24.6869 17.3243L24.6841 17.3271Z" fill="white"/>
</svg>
