<svg width="60" height="60" viewBox="0 0 60 60" fill="none" xmlns="http://www.w3.org/2000/svg">
<rect x="0.75" y="0.75" width="58.5" height="58.5" rx="29.25" fill="#00D9D5"/>
<rect x="0.75" y="0.75" width="58.5" height="58.5" rx="29.25" stroke="white" stroke-width="1.5"/>
<g clip-path="url(#clip0_602_9439)">
<path d="M34.9384 29.6025C31.4156 29.6025 28.5496 32.4701 28.5496 35.9949C28.5496 39.5197 31.4156 42.3873 34.9384 42.3873C35.6611 42.3873 36.37 42.2665 37.0474 42.0305C37.0899 42.0154 37.1352 42.0086 37.1791 42.0086C37.2161 42.0086 37.2545 42.0141 37.2915 42.025L40.8157 43.0527L40.4688 39.3441C40.4619 39.2631 40.4784 39.1822 40.5182 39.1122C41.0475 38.1655 41.3272 37.0884 41.3272 35.9976C41.3259 32.4701 38.4599 29.6025 34.9384 29.6025Z" fill="white"/>
</g>
<path d="M35.1631 35.6865C34.7585 35.6865 34.4319 36.0099 34.4319 36.4074C34.4319 36.8049 34.7599 37.1283 35.1631 37.1283C35.5663 37.1283 35.8942 36.8049 35.8942 36.4074C35.8942 36.0099 35.5663 35.6865 35.1631 35.6865Z" fill="#00D9D5"/>
<path d="M38.0736 37.1259C38.476 37.0931 38.7753 36.7448 38.742 36.3481C38.7087 35.9513 38.3555 35.6563 37.953 35.6891C37.5506 35.7219 37.2514 36.0702 37.2847 36.467C37.318 36.8637 37.6712 37.1588 38.0736 37.1259Z" fill="#00D9D5"/>
<path d="M32.3111 37.1283C32.7149 37.1283 33.0423 36.8055 33.0423 36.4074C33.0423 36.0093 32.7149 35.6865 32.3111 35.6865C31.9073 35.6865 31.58 36.0093 31.58 36.4074C31.58 36.8055 31.9073 37.1283 32.3111 37.1283Z" fill="#00D9D5"/>
<path d="M35.1926 29.5454C31.4397 29.5454 28.3854 32.5554 28.3854 36.2569C28.3854 39.9583 31.4384 42.9683 35.1926 42.9683C35.9211 42.9683 36.6366 42.8556 37.3235 42.6329L41.0816 43.7122C41.1167 43.7224 41.1518 43.7275 41.1881 43.7275C41.2751 43.7275 41.3608 43.6981 41.4296 43.6417C41.5257 43.5637 41.5777 43.442 41.566 43.3191L41.1972 39.4257C41.7244 38.4564 42.0023 37.3643 42.0023 36.2581C42.0023 32.558 38.9494 29.5467 35.1952 29.5467L35.1926 29.5454ZM40.4765 39.1619C40.4388 39.2285 40.4233 39.304 40.4297 39.3783L40.7583 42.839L37.4209 41.88C37.3859 41.8698 37.3508 41.8647 37.3145 41.8647C37.2716 41.8647 37.2301 41.8711 37.1898 41.8851C36.5483 42.1066 35.8769 42.218 35.1926 42.218C31.8565 42.218 29.1425 39.5422 29.1425 36.253C29.1425 32.9639 31.8565 30.288 35.1926 30.288C38.5286 30.288 41.2427 32.9639 41.2427 36.253C41.2427 37.2709 40.9777 38.2759 40.4765 39.1593V39.1619Z" fill="white"/>
<path d="M35.8978 23.1881C35.0097 23.1881 34.29 23.8977 34.29 24.7733V27.3043C34.5642 27.28 34.8399 27.2628 35.12 27.2628C35.9472 27.2628 36.7438 27.383 37.5042 27.5905V24.7733C37.5042 23.8977 36.7845 23.1881 35.8964 23.1881H35.8978ZM32.0886 17.1961C31.2005 17.1961 30.4807 17.9058 30.4807 18.7814V27.7507C30.2587 27.7321 30.0338 27.7207 29.8059 27.7207V17.5853C29.8059 16.7096 29.0862 16 28.1981 16C27.31 16 26.5902 16.7096 26.5902 17.5853V28.3874C26.3507 28.4904 26.1157 28.602 25.8907 28.7265V19.8144C25.8907 18.9387 25.171 18.2291 24.2829 18.2291C23.3948 18.2291 22.675 18.9387 22.675 19.8144V32.6396C22.6721 32.6252 22.6677 32.6109 22.6663 32.5966L21.1774 28.8939C20.9888 28.0383 20.134 27.4975 19.2648 27.6835C18.397 27.8709 17.8485 28.715 18.0371 29.5692L19.5188 36.2608C20.4344 40.9622 25.1492 43.8337 29.3038 43.8337C29.5766 43.8337 29.8466 43.8208 30.1121 43.7965C30.3008 43.7793 30.4909 43.7507 30.681 43.7192C27.9949 42.1969 26.1795 39.3455 26.1795 36.0776C26.1795 31.6953 29.4417 28.0597 33.6964 27.3844V18.7814C33.6964 17.9058 32.9767 17.1961 32.0886 17.1961Z" fill="white"/>
<defs>
<clipPath id="clip0_602_9439">
<rect width="12.7776" height="13.4501" fill="white" transform="translate(28.5496 29.6025)"/>
</clipPath>
</defs>
</svg>
