<svg width="20" height="21" viewBox="0 0 20 21" fill="none" xmlns="http://www.w3.org/2000/svg">
<path d="M11.0029 5.58691H6.20285C6.00785 5.58691 5.82035 5.59441 5.64035 5.61691C3.62285 5.78941 2.61035 6.98191 2.61035 9.17941V12.1794C2.61035 15.1794 3.81035 15.7719 6.20285 15.7719H6.50285C6.66785 15.7719 6.88535 15.8844 6.98285 16.0119L7.88285 17.2119C8.28035 17.7444 8.92535 17.7444 9.32285 17.2119L10.2229 16.0119C10.3354 15.8619 10.5154 15.7719 10.7029 15.7719H11.0029C13.2004 15.7719 14.3929 14.7669 14.5654 12.7419C14.5879 12.5619 14.5954 12.3744 14.5954 12.1794V9.17941C14.5954 6.78691 13.3954 5.58691 11.0029 5.58691ZM5.98535 11.5869C5.56535 11.5869 5.23535 11.2494 5.23535 10.8369C5.23535 10.4244 5.57285 10.0869 5.98535 10.0869C6.39785 10.0869 6.73535 10.4244 6.73535 10.8369C6.73535 11.2494 6.39785 11.5869 5.98535 11.5869ZM8.60285 11.5869C8.18285 11.5869 7.85285 11.2494 7.85285 10.8369C7.85285 10.4244 8.19035 10.0869 8.60285 10.0869C9.01535 10.0869 9.35285 10.4244 9.35285 10.8369C9.35285 11.2494 9.02285 11.5869 8.60285 11.5869ZM11.2279 11.5869C10.8079 11.5869 10.4779 11.2494 10.4779 10.8369C10.4779 10.4244 10.8154 10.0869 11.2279 10.0869C11.6404 10.0869 11.9779 10.4244 11.9779 10.8369C11.9779 11.2494 11.6404 11.5869 11.2279 11.5869Z" fill="white"/>
<path d="M17.5946 6.17941V9.17941C17.5946 10.6794 17.1296 11.6994 16.1996 12.2619C15.9746 12.3969 15.7121 12.2169 15.7121 11.9544L15.7196 9.17941C15.7196 6.17941 14.0021 4.46191 11.0021 4.46191L6.43456 4.46941C6.17206 4.46941 5.99206 4.20691 6.12706 3.98191C6.68956 3.05191 7.70956 2.58691 9.20206 2.58691H14.0021C16.3946 2.58691 17.5946 3.78691 17.5946 6.17941Z" fill="white"/>
</svg>
