<svg width="36" height="36" viewBox="0 0 36 36" fill="none" xmlns="http://www.w3.org/2000/svg">
<g clip-path="url(#clip0_468_7525)">
<path d="M29.4138 0H6.5862C2.94874 0 0 2.94874 0 6.5862V29.4138C0 33.0513 2.94874 36 6.5862 36H29.4138C33.0513 36 36 33.0513 36 29.4138V6.5862C36 2.94874 33.0513 0 29.4138 0Z" fill="#FFDA00"/>
<path d="M18.0009 5.60693C11.5289 5.60693 6.2821 10.46 6.2821 16.4468C6.2821 20.8675 8.13299 22.9785 10.6694 24.9033L10.6817 24.9085V30.0973C10.6817 30.3417 10.9612 30.4823 11.158 30.3364L15.6016 27.0354L15.6965 27.0776C16.4418 27.2147 17.2116 27.2867 17.9991 27.2867C24.4711 27.2867 29.7179 22.4337 29.7179 16.4468C29.7179 10.46 24.4711 5.60693 17.9991 5.60693M14.0723 19.1924C15.2219 19.1924 16.2045 18.5051 16.4998 17.4417H18.1995C17.7847 19.4859 16.1922 20.8271 14.0741 20.8271C11.6115 20.8271 9.6587 18.9903 9.6587 16.4345C9.6587 13.8788 11.6115 12.042 14.0741 12.042C16.215 12.042 17.8163 13.4095 18.2118 15.4889H16.5173C16.259 14.3587 15.243 13.6538 14.0741 13.6538C12.4183 13.6538 11.3162 14.835 11.3162 16.4363C11.3162 18.0376 12.5695 19.1959 14.0741 19.1959M25.2673 20.6583H23.71V17.1464C23.71 16.3379 23.2389 15.9037 22.5147 15.9037C21.7062 15.9037 21.1876 16.3976 21.1876 17.3995V20.6583H19.6303V12.0683H21.1876V15.299C21.562 14.7313 22.1649 14.4536 22.9858 14.4536C23.6502 14.4536 24.1933 14.6715 24.6152 15.118C25.0494 15.5645 25.2673 16.1674 25.2673 16.9531V20.6583Z" fill="#221E1F"/>
</g>
<defs>
<clipPath id="clip0_468_7525">
<rect width="36" height="36" fill="white"/>
</clipPath>
</defs>
</svg>
