<svg width="38" height="21" viewBox="0 0 38 21" fill="none" xmlns="http://www.w3.org/2000/svg">
<g clip-path="url(#clip0_468_9287)">
<path d="M11.5172 5.62125C12.0895 5.34599 12.4227 4.70129 12.2706 4.04935C12.0967 3.29599 11.3506 2.82514 10.5973 2.99899C9.84392 3.17285 9.37307 3.91896 9.54693 4.67231C9.6918 5.31701 10.2713 5.75888 10.9088 5.75888C10.8291 10.6847 9.91636 13.6546 8.56177 15.3207L17.5513 13.0896C15.6752 12.1045 13.6397 9.83715 11.5172 5.62125Z" fill="#FFBF53"/>
<path d="M26.4757 5.62125C25.9035 5.34599 25.5703 4.70129 25.7224 4.04935C25.8962 3.29599 26.6424 2.82514 27.3957 2.99899C28.1491 3.17285 28.6199 3.91896 28.4461 4.67231C28.3012 5.31701 27.7217 5.75888 27.0842 5.75888C27.1639 10.6847 28.0766 13.6546 29.4312 15.3207L20.4417 13.0896C22.3178 12.1045 24.3533 9.83715 26.4757 5.62125Z" fill="#FFBF53"/>
<path d="M35.8709 4.85335C35.0958 4.85335 34.4729 5.47632 34.4729 6.25141C34.4729 6.67155 34.6612 7.04822 34.9509 7.30176C32.1041 10.7281 23.3971 19.3844 19.3116 2.75989C19.9345 2.61501 20.3981 2.06448 20.3981 1.39805C20.3981 0.622967 19.7752 0 19.0001 0C18.225 0 17.602 0.622967 17.602 1.39805C17.602 2.06448 18.0656 2.62226 18.6886 2.75989C14.6031 19.3844 5.89604 10.7281 3.04922 7.309C3.34622 7.05547 3.52731 6.67879 3.52731 6.25865C3.52731 5.48356 2.90434 4.86059 2.12926 4.86059C1.35417 4.86059 0.731201 5.48356 0.731201 6.25865C0.731201 7.03374 1.35417 7.6567 2.12926 7.6567C2.27413 7.6567 2.41901 7.63497 2.55664 7.59151L6.31618 20.5652H31.684L35.4435 7.59151C35.5739 7.63497 35.7188 7.6567 35.8709 7.6567C36.646 7.6567 37.269 7.03374 37.269 6.25865C37.269 5.48356 36.646 4.86059 35.8709 4.86059V4.85335Z" fill="#FFD986"/>
</g>
<defs>
<clipPath id="clip0_468_9287">
<rect width="36.5378" height="20.5579" fill="white" transform="translate(0.731201)"/>
</clipPath>
</defs>
</svg>
