<svg width="50" height="50" viewBox="0 0 50 50" fill="none" xmlns="http://www.w3.org/2000/svg">
<path d="M33.3341 0H16.6659C7.46158 0 0 7.46158 0 16.6659V33.3341C0 42.5384 7.46158 50 16.6659 50H33.3341C42.5384 50 50 42.5384 50 33.3341V16.6659C50 7.46158 42.5384 0 33.3341 0Z" fill="#E3EBFA"/>
<path d="M25 14.4522C24.4978 14.4522 24.0909 14.0453 24.0909 13.5431V9.67716C24.0909 9.17488 24.4978 8.76807 25 8.76807C25.5023 8.76807 25.9091 9.17488 25.9091 9.67716V13.5431C25.9091 14.0453 25.5023 14.4522 25 14.4522Z" fill="#3B4B66"/>
<path d="M34.9728 29.1865H15.025C14.2864 29.1865 13.6864 28.5865 13.6864 27.8479C13.6864 27.1093 14.2864 26.5093 15.025 26.5093H34.9728C35.7114 26.5093 36.3114 27.1093 36.3114 27.8479C36.3114 28.5865 35.7114 29.1865 34.9728 29.1865Z" fill="#3B4B66"/>
<path d="M14.3182 38.6159C14.1795 38.6159 14.0386 38.5841 13.9068 38.5182C13.4591 38.2909 13.2795 37.7432 13.5068 37.2955L20.7795 22.3295C21.0068 21.8818 21.5545 21.7023 22.0023 21.9295C22.45 22.1568 22.6295 22.7045 22.4023 23.1523L15.1295 38.1182C14.9682 38.4341 14.65 38.6159 14.3182 38.6159Z" fill="#3B4B66"/>
<path d="M35.6818 38.6161C35.35 38.6161 35.0296 38.4343 34.8705 38.1183L27.5978 23.1547C27.3705 22.707 27.55 22.1593 27.9978 21.932C28.4455 21.7047 28.9932 21.8843 29.2205 22.332L36.4932 37.2956C36.7205 37.7433 36.5409 38.2911 36.0932 38.5183C35.9614 38.5843 35.8205 38.6161 35.6818 38.6161Z" fill="#3B4B66"/>
<path d="M35.7704 33.3295L28.3772 18.1772L25.0022 19.8909L21.6249 18.1772L14.2317 33.3318C13.7499 34.3204 14.1499 35.5136 15.1317 36.0113C16.1363 36.5204 17.3613 36.1091 17.8545 35.0977L25.0022 20.4318L32.1499 35.0977C32.6431 36.1091 33.8704 36.5204 34.8727 36.0113C35.8545 35.5136 36.2545 34.3204 35.7726 33.3295H35.7704Z" fill="#6270F4"/>
<path d="M25 21.3295C27.4727 21.3295 29.4772 19.325 29.4772 16.8523C29.4772 14.3795 27.4727 12.375 25 12.375C22.5272 12.375 20.5227 14.3795 20.5227 16.8523C20.5227 19.325 22.5272 21.3295 25 21.3295Z" fill="white"/>
<path d="M26.7273 16.8523C26.7273 17.8068 25.9545 18.5795 25 18.5795C24.0454 18.5795 23.2727 17.8068 23.2727 16.8523C23.2727 15.8977 24.0454 15.125 25 15.125C25.9545 15.125 26.7273 15.8977 26.7273 16.8523Z" fill="#D0DEF7"/>
</svg>
