<svg width="32" height="32" viewBox="0 0 32 32" fill="none" xmlns="http://www.w3.org/2000/svg">
<path d="M26.9199 18.7462L25.4133 16.2396C25.0799 15.6929 24.7866 14.6396 24.7866 13.9996V11.5062C24.7866 6.66624 20.8533 2.73291 16.0266 2.73291C11.1866 2.74624 7.25328 6.66624 7.25328 11.5062V13.9862C7.25328 14.6262 6.95994 15.6796 6.63995 16.2262L5.13328 18.7329C4.55994 19.7062 4.42661 20.8129 4.78661 21.7729C5.14661 22.7462 5.95994 23.5196 7.02661 23.8662C8.46661 24.3462 9.91995 24.6929 11.3999 24.9462C11.5466 24.9729 11.6933 24.9862 11.8399 25.0129C12.0266 25.0396 12.2266 25.0662 12.4266 25.0929C12.7733 25.1462 13.1199 25.1862 13.4799 25.2129C14.3199 25.2929 15.1733 25.3329 16.0266 25.3329C16.8666 25.3329 17.7066 25.2929 18.5333 25.2129C18.8399 25.1862 19.1466 25.1596 19.4399 25.1196C19.6799 25.0929 19.9199 25.0662 20.1599 25.0262C20.3066 25.0129 20.4533 24.9862 20.5999 24.9596C22.0933 24.7196 23.5733 24.3462 25.0133 23.8662C26.0399 23.5196 26.8266 22.7462 27.1999 21.7596C27.5733 20.7596 27.4666 19.6662 26.9199 18.7462ZM16.9999 13.3329C16.9999 13.8929 16.5466 14.3462 15.9866 14.3462C15.4266 14.3462 14.9733 13.8929 14.9733 13.3329V9.19958C14.9733 8.63958 15.4266 8.18624 15.9866 8.18624C16.5466 8.18624 16.9999 8.63958 16.9999 9.19958V13.3329Z" fill="#E9E9E9"/>
<path d="M19.7733 26.6798C19.2133 28.2265 17.7333 29.3332 16 29.3332C14.9467 29.3332 13.9067 28.9065 13.1733 28.1465C12.7467 27.7465 12.4267 27.2132 12.24 26.6665C12.4133 26.6932 12.5867 26.7065 12.7733 26.7332C13.08 26.7732 13.4 26.8132 13.72 26.8398C14.48 26.9065 15.2533 26.9465 16.0267 26.9465C16.7867 26.9465 17.5467 26.9065 18.2933 26.8398C18.5733 26.8132 18.8533 26.7998 19.12 26.7598C19.3333 26.7332 19.5467 26.7065 19.7733 26.6798Z" fill="#E9E9E9"/>
<circle cx="16.0001" cy="17.3333" r="1.33333" fill="white"/>
</svg>
