<svg width="33" height="32" viewBox="0 0 33 32" fill="none" xmlns="http://www.w3.org/2000/svg">
<path d="M11.1268 19.7733C10.1668 18.68 8.74016 18 7.16683 18C4.22016 18 1.8335 20.3867 1.8335 23.3333C1.8335 24.3333 2.1135 25.28 2.60683 26.08C2.8735 26.5333 3.22016 26.9467 3.62016 27.2933C4.5535 28.1467 5.7935 28.6667 7.16683 28.6667C9.1135 28.6667 10.8068 27.6267 11.7268 26.08C12.2202 25.28 12.5002 24.3333 12.5002 23.3333C12.5002 21.9733 11.9802 20.72 11.1268 19.7733ZM9.30016 25.44C9.10016 25.64 8.84683 25.7333 8.5935 25.7333C8.34016 25.7333 8.08683 25.64 7.88683 25.44L7.18016 24.7333L6.44683 25.4667C6.24683 25.6667 5.9935 25.76 5.74016 25.76C5.48683 25.76 5.2335 25.6667 5.0335 25.4667C4.64683 25.08 4.64683 24.44 5.0335 24.0533L5.76683 23.32L5.06016 22.6133C4.6735 22.2267 4.6735 21.5867 5.06016 21.2C5.44683 20.8133 6.08683 20.8133 6.4735 21.2L7.18016 21.9067L7.84683 21.24C8.2335 20.8533 8.8735 20.8533 9.26016 21.24C9.64683 21.6267 9.64683 22.2667 9.26016 22.6533L8.5935 23.32L9.30016 24.0267C9.68683 24.4133 9.68683 25.04 9.30016 25.44Z" fill="#00D9D5"/>
<path d="M23.5 3.24023H10.8333C7.03333 3.24023 4.5 5.77357 4.5 9.57357V15.5202C4.5 15.9869 4.98 16.3202 5.43333 16.2002C5.99333 16.0669 6.56667 16.0002 7.16667 16.0002C10.98 16.0002 14.1267 19.0936 14.4733 22.8402C14.5 23.2136 14.8067 23.5069 15.1667 23.5069H15.9L21.54 27.2669C22.3667 27.8269 23.5 27.2136 23.5 26.2002V23.5069C25.3933 23.5069 26.98 22.8669 28.0867 21.7736C29.1933 20.6536 29.8333 19.0669 29.8333 17.1736V9.57357C29.8333 5.77357 27.3 3.24023 23.5 3.24023ZM21.6067 14.4136H12.7267C12.2067 14.4136 11.78 13.9869 11.78 13.4669C11.78 12.9336 12.2067 12.5069 12.7267 12.5069H21.6067C22.1267 12.5069 22.5533 12.9336 22.5533 13.4669C22.5533 13.9869 22.1267 14.4136 21.6067 14.4136Z" fill="#00D9D5"/>
</svg>
