<svg width="21" height="20" viewBox="0 0 21 20" fill="none" xmlns="http://www.w3.org/2000/svg">
<path fill-rule="evenodd" clip-rule="evenodd" d="M16.0516 13.6915C16.7557 12.6347 17.166 11.3654 17.166 10.0003C17.166 6.31861 14.1813 3.33398 10.4996 3.33398C6.81788 3.33398 3.83325 6.31861 3.83325 10.0003C3.83325 13.6821 6.81788 16.6667 10.4996 16.6667C11.8654 16.6667 13.1353 16.256 14.1924 15.5513L17.1674 16.6669L16.0516 13.6915Z" fill="#CDCDCD"/>
<path d="M16.0516 13.6915L15.5315 13.345C15.4201 13.5123 15.3959 13.7228 15.4664 13.911L16.0516 13.6915ZM14.1924 15.5513L14.4119 14.9661C14.2237 14.8955 14.013 14.9197 13.8458 15.0312L14.1924 15.5513ZM17.1674 16.6669L16.9479 17.2521C17.1774 17.3382 17.436 17.2821 17.6093 17.1088C17.7826 16.9355 17.8386 16.6769 17.7526 16.4474L17.1674 16.6669ZM16.541 10.0003C16.541 11.2383 16.1693 12.3876 15.5315 13.345L16.5718 14.038C17.342 12.8818 17.791 11.4925 17.791 10.0003H16.541ZM10.4996 3.95898C13.8362 3.95898 16.541 6.66379 16.541 10.0003H17.791C17.791 5.97344 14.5265 2.70898 10.4996 2.70898V3.95898ZM4.45825 10.0003C4.45825 6.66379 7.16306 3.95898 10.4996 3.95898V2.70898C6.4727 2.70898 3.20825 5.97344 3.20825 10.0003H4.45825ZM10.4996 16.0417C7.16306 16.0417 4.45825 13.3369 4.45825 10.0003H3.20825C3.20825 14.0272 6.4727 17.2917 10.4996 17.2917V16.0417ZM13.8458 15.0312C12.8881 15.6696 11.7382 16.0417 10.4996 16.0417V17.2917C11.9926 17.2917 13.3825 16.8423 14.5391 16.0713L13.8458 15.0312ZM13.973 16.1365L16.9479 17.2521L17.3868 16.0817L14.4119 14.9661L13.973 16.1365ZM17.7526 16.4474L16.6368 13.4721L15.4664 13.911L16.5822 16.8863L17.7526 16.4474Z" fill="#CDCDCD"/>
<circle cx="7.16659" cy="9.99935" r="0.833333" fill="white"/>
<circle cx="10.5001" cy="9.99935" r="0.833333" fill="white"/>
<circle cx="13.8333" cy="9.99935" r="0.833333" fill="white"/>
</svg>
