<svg width="20" height="20" viewBox="0 0 20 20" fill="none" xmlns="http://www.w3.org/2000/svg">
<path d="M4.16671 11.25C2.32504 11.25 0.833374 12.7417 0.833374 14.5833C0.833374 15.2083 1.00837 15.8 1.31671 16.3C1.89171 17.2667 2.95004 17.9167 4.16671 17.9167C5.38337 17.9167 6.44171 17.2667 7.01671 16.3C7.32504 15.8 7.50004 15.2083 7.50004 14.5833C7.50004 12.7417 6.00837 11.25 4.16671 11.25ZM5.80837 14.3083L4.03337 15.95C3.91671 16.0583 3.75837 16.1167 3.60837 16.1167C3.45004 16.1167 3.29171 16.0583 3.16671 15.9333L2.34171 15.1083C2.10004 14.8667 2.10004 14.4667 2.34171 14.225C2.58337 13.9833 2.98337 13.9833 3.22504 14.225L3.62504 14.625L4.95837 13.3917C5.20837 13.1583 5.60837 13.175 5.84171 13.425C6.07504 13.675 6.05837 14.075 5.80837 14.3083Z" fill="#6B7280"/>
<path d="M14.375 2.02502H6.45833C4.08333 2.02502 2.5 3.60836 2.5 5.98336V9.70002C2.5 9.99169 2.8 10.2 3.08333 10.125C3.43333 10.0417 3.79167 10 4.16667 10C6.55 10 8.51667 11.9334 8.73333 14.275C8.75 14.5084 8.94167 14.6917 9.16667 14.6917H9.625L13.15 17.0417C13.6667 17.3917 14.375 17.0084 14.375 16.375V14.6917C15.5583 14.6917 16.55 14.2917 17.2417 13.6084C17.9333 12.9084 18.3333 11.9167 18.3333 10.7334V5.98336C18.3333 3.60836 16.75 2.02502 14.375 2.02502ZM13.1917 9.00836H7.64167C7.31667 9.00836 7.05 8.74169 7.05 8.41669C7.05 8.08336 7.31667 7.81669 7.64167 7.81669H13.1917C13.5167 7.81669 13.7833 8.08336 13.7833 8.41669C13.7833 8.74169 13.5167 9.00836 13.1917 9.00836Z" fill="#6B7280"/>
</svg>
