<svg width="20" height="20" viewBox="0 0 20 20" fill="none" xmlns="http://www.w3.org/2000/svg">
<path fill-rule="evenodd" clip-rule="evenodd" d="M13.1955 14.3739C12.1182 15.202 10.7693 15.6943 9.30551 15.6943C5.77703 15.6943 2.91663 12.8339 2.91663 9.30539C2.91663 5.77691 5.77703 2.9165 9.30551 2.9165C12.834 2.9165 15.6944 5.77691 15.6944 9.30539C15.6944 10.7692 15.2021 12.1181 14.374 13.1954L16.8392 15.6606C17.1647 15.986 17.1647 16.5137 16.8392 16.8391C16.5138 17.1645 15.9861 17.1645 15.6607 16.8391L13.1955 14.3739ZM4.58329 9.30539C4.58329 6.69738 6.6975 4.58317 9.30551 4.58317C11.9135 4.58317 14.0277 6.69738 14.0277 9.30539C14.0277 10.5741 13.5274 11.726 12.7133 12.5744C12.6879 12.5945 12.6633 12.6163 12.6399 12.6397C12.6164 12.6632 12.5946 12.6878 12.5745 12.7132C11.7261 13.5273 10.5742 14.0276 9.30551 14.0276C6.6975 14.0276 4.58329 11.9134 4.58329 9.30539Z" fill="#999999"/>
</svg>
