<svg width="20" height="20" viewBox="0 0 20 20" fill="none" xmlns="http://www.w3.org/2000/svg">
<path d="M16.6333 7.46662C16.075 6.84996 15.2333 6.49162 14.0666 6.36662V5.73329C14.0666 4.59162 13.5833 3.49162 12.7333 2.72496C11.875 1.94162 10.7583 1.57496 9.59995 1.68329C7.60828 1.87496 5.93328 3.79996 5.93328 5.88329V6.36662C4.76662 6.49162 3.92495 6.84996 3.36662 7.46662C2.55828 8.36662 2.58328 9.56662 2.67495 10.4L3.25828 15.0416C3.43328 16.6666 4.09162 18.3333 7.67495 18.3333H12.325C15.9083 18.3333 16.5666 16.6666 16.7416 15.05L17.325 10.3916C17.4166 9.56663 17.4416 8.36662 16.6333 7.46662ZM9.71662 2.84162C10.55 2.76662 11.3416 3.02496 11.9583 3.58329C12.5666 4.13329 12.9083 4.91662 12.9083 5.73329V6.31662H7.09162V5.88329C7.09162 4.39996 8.31662 2.97496 9.71662 2.84162ZM9.99995 15.4833C8.25828 15.4833 6.84162 14.0666 6.84162 12.325C6.84162 10.5833 8.25828 9.16663 9.99995 9.16663C11.7416 9.16663 13.1583 10.5833 13.1583 12.325C13.1583 14.0666 11.7416 15.4833 9.99995 15.4833Z" fill="#6B7280"/>
<path d="M9.52494 13.8666C9.36661 13.8666 9.20828 13.8083 9.08328 13.6833L8.25828 12.8583C8.01661 12.6166 8.01661 12.2166 8.25828 11.975C8.49994 11.7333 8.89994 11.7333 9.14161 11.975L9.54161 12.375L10.8749 11.1416C11.1249 10.9083 11.5249 10.925 11.7583 11.175C11.9916 11.425 11.9749 11.825 11.7249 12.0583L9.94994 13.7C9.82494 13.8083 9.67494 13.8666 9.52494 13.8666Z" fill="#6B7280"/>
</svg>
