<svg width="50" height="50" viewBox="0 0 50 50" fill="none" xmlns="http://www.w3.org/2000/svg">
<path d="M33.3341 0H16.6659C7.46157 0 0 7.46158 0 16.6659V33.3341C0 42.5384 7.46157 50 16.6659 50H33.3341C42.5384 50 50 42.5384 50 33.3341V16.6659C50 7.46158 42.5384 0 33.3341 0Z" fill="#FBF4D7"/>
<path d="M37.8114 22.2388C37.7501 22.2388 37.6887 22.2343 37.6274 22.2274L12.0114 19.032C11.2024 18.932 10.6274 18.1933 10.7274 17.3843C10.8274 16.5752 11.566 16.0002 12.3751 16.1002L37.991 19.2956C38.8001 19.3956 39.3751 20.1343 39.2751 20.9433C39.1819 21.6911 38.5455 22.2388 37.8114 22.2388Z" fill="white"/>
<path d="M12.1908 34.293C11.4567 34.293 10.8203 33.7453 10.7272 32.9976C10.6272 32.1885 11.1999 31.4499 12.0112 31.3499L37.6272 28.1544C38.4362 28.0544 39.1749 28.6271 39.2749 29.4385C39.3749 30.2476 38.8022 30.9862 37.9908 31.0862L12.3749 34.2817C12.3135 34.2885 12.2521 34.293 12.1908 34.293Z" fill="white"/>
<path d="M17.9115 14.7363H15.6387C14.6346 14.7363 13.8206 15.5504 13.8206 16.5545V33.8272C13.8206 34.8314 14.6346 35.6454 15.6387 35.6454H17.9115C18.9156 35.6454 19.7296 34.8314 19.7296 33.8272V16.5545C19.7296 15.5504 18.9156 14.7363 17.9115 14.7363Z" fill="#FFD255"/>
<path d="M16.7751 19.0545C17.2771 19.0545 17.6841 18.6475 17.6841 18.1454C17.6841 17.6433 17.2771 17.2363 16.7751 17.2363C16.273 17.2363 15.866 17.6433 15.866 18.1454C15.866 18.6475 16.273 19.0545 16.7751 19.0545Z" fill="white"/>
<path d="M16.7751 33.1453C17.2771 33.1453 17.6841 32.7383 17.6841 32.2362C17.6841 31.7342 17.2771 31.3271 16.7751 31.3271C16.273 31.3271 15.866 31.7342 15.866 32.2362C15.866 32.7383 16.273 33.1453 16.7751 33.1453Z" fill="white"/>
<path d="M26.1954 15.6455H23.9227C22.9185 15.6455 22.1045 16.4595 22.1045 17.4637V32.9182C22.1045 33.9224 22.9185 34.7364 23.9227 34.7364H26.1954C27.1995 34.7364 28.0136 33.9224 28.0136 32.9182V17.4637C28.0136 16.4595 27.1995 15.6455 26.1954 15.6455Z" fill="#FFA943"/>
<path d="M25.059 19.9637C25.5611 19.9637 25.9681 19.5567 25.9681 19.0546C25.9681 18.5525 25.5611 18.1455 25.059 18.1455C24.5569 18.1455 24.1499 18.5525 24.1499 19.0546C24.1499 19.5567 24.5569 19.9637 25.059 19.9637Z" fill="white"/>
<path d="M25.059 32.2362C25.5611 32.2362 25.9681 31.8291 25.9681 31.3271C25.9681 30.825 25.5611 30.418 25.059 30.418C24.5569 30.418 24.1499 30.825 24.1499 31.3271C24.1499 31.8291 24.5569 32.2362 25.059 32.2362Z" fill="white"/>
<path d="M34.4796 16.7817H32.2069C31.2027 16.7817 30.3887 17.5958 30.3887 18.5999V31.7817C30.3887 32.7859 31.2027 33.5999 32.2069 33.5999H34.4796C35.4837 33.5999 36.2978 32.7859 36.2978 31.7817V18.5999C36.2978 17.5958 35.4837 16.7817 34.4796 16.7817Z" fill="#FFD255"/>
<path d="M33.3432 21.0999C33.8453 21.0999 34.2523 20.6929 34.2523 20.1908C34.2523 19.6888 33.8453 19.2817 33.3432 19.2817C32.8411 19.2817 32.4341 19.6888 32.4341 20.1908C32.4341 20.6929 32.8411 21.0999 33.3432 21.0999Z" fill="white"/>
<path d="M33.3432 31.0999C33.8453 31.0999 34.2523 30.6929 34.2523 30.1908C34.2523 29.6888 33.8453 29.2817 33.3432 29.2817C32.8411 29.2817 32.4341 29.6888 32.4341 30.1908C32.4341 30.6929 32.8411 31.0999 33.3432 31.0999Z" fill="white"/>
</svg>
