<svg width="27" height="28" viewBox="0 0 27 28" fill="none" xmlns="http://www.w3.org/2000/svg">
<path d="M13.8021 1.69322L16.5652 10.605H25.5008C25.9824 10.605 26.1852 11.2587 25.7923 11.5522L18.5678 17.0621L21.3308 25.9739C21.4829 26.4541 20.9506 26.8677 20.5577 26.5609L13.3332 21.051L6.10866 26.5609C5.71575 26.8544 5.18342 26.4541 5.33551 25.9739L8.09857 17.0621L0.874062 11.5522C0.48115 11.2587 0.683944 10.605 1.16558 10.605H10.1012L12.8642 1.69322C13.0163 1.21294 13.65 1.21294 13.8021 1.69322Z" fill="#E5E5EC" stroke="#E5E5EC" stroke-width="1.25" stroke-linejoin="round"/>
<mask id="mask0_1945_3751" style="mask-type:alpha" maskUnits="userSpaceOnUse" x="0" y="0" width="27" height="28">
<path d="M13.8021 1.69322L16.5652 10.605H25.5008C25.9824 10.605 26.1852 11.2587 25.7923 11.5522L18.5678 17.0621L21.3308 25.9739C21.4829 26.4541 20.9506 26.8677 20.5577 26.5609L13.3332 21.051L6.10866 26.5609C5.71575 26.8544 5.18342 26.4541 5.33551 25.9739L8.09857 17.0621L0.874062 11.5522C0.48115 11.2587 0.683944 10.605 1.16558 10.605H10.1012L12.8642 1.69322C13.0163 1.21294 13.65 1.21294 13.8021 1.69322Z" fill="#E5E5EC" stroke="#E5E5EC" stroke-width="1.25" stroke-linejoin="round"/>
</mask>
<g mask="url(#mask0_1945_3751)">
<rect x="-5.6665" y="-1.66699" width="19" height="30" fill="#FFAA00"/>
</g>
</svg>
