<svg width="20" height="20" viewBox="0 0 20 20" fill="none" xmlns="http://www.w3.org/2000/svg">
<path d="M16.2222 4H3.77778C3.30628 4 2.8541 4.18061 2.5207 4.5021C2.1873 4.82359 2 5.25963 2 5.71429V11.7143V14.2857C2 14.7404 2.1873 15.1764 2.5207 15.4979C2.8541 15.8194 3.30628 16 3.77778 16H16.2222C16.6937 16 17.1459 15.8194 17.4793 15.4979C17.8127 15.1764 18 14.7404 18 14.2857V12.25C17.5285 12.25 16.7334 11.8215 16.4 11.5C16.0666 11.1785 16 10.4547 16 10C16 9.54534 16.0666 8.82149 16.4 8.5C16.7334 8.17851 17.5285 7.75 18 7.75V5.71429C18 5.25963 17.8127 4.82359 17.4793 4.5021C17.1459 4.18061 16.6937 4 16.2222 4Z" fill="#00D9D5" stroke="#00D9D5" stroke-width="1.25" stroke-linecap="round" stroke-linejoin="round"/>
<path d="M6.6665 9.99967L8.33317 11.6663L11.6665 8.33301" stroke="white" stroke-width="1.5" stroke-linecap="round" stroke-linejoin="round"/>
</svg>
