<svg width="20" height="20" viewBox="0 0 20 20" fill="none" xmlns="http://www.w3.org/2000/svg">
<path d="M15 1.66663H5C3.61667 1.66663 2.5 2.77496 2.5 4.14163V13.2333C2.5 14.6 3.61667 15.7083 5 15.7083H5.63333C6.3 15.7083 6.93333 15.9666 7.4 16.4333L8.825 17.8416C9.475 18.4833 10.5333 18.4833 11.1833 17.8416L12.6083 16.4333C13.075 15.9666 13.7167 15.7083 14.375 15.7083H15C16.3833 15.7083 17.5 14.6 17.5 13.2333V4.14163C17.5 2.77496 16.3833 1.66663 15 1.66663ZM10 4.79163C11.075 4.79163 11.9417 5.65829 11.9417 6.73329C11.9417 7.80829 11.075 8.67496 10 8.67496C8.925 8.67496 8.05833 7.79996 8.05833 6.73329C8.05833 5.65829 8.925 4.79163 10 4.79163ZM12.2333 12.55H7.76667C7.09167 12.55 6.7 11.8 7.075 11.2416C7.64167 10.4 8.74167 9.83329 10 9.83329C11.2583 9.83329 12.3583 10.4 12.925 11.2416C13.3 11.8 12.9 12.55 12.2333 12.55Z" fill="#6B7280"/>
</svg>
