<svg width="20" height="20" viewBox="0 0 20 20" fill="none" xmlns="http://www.w3.org/2000/svg">
<path d="M17.6252 5.14183C17.2835 4.9585 16.5668 4.76683 15.5918 5.45016L14.3668 6.31683C14.2752 3.72516 13.1502 2.7085 10.4168 2.7085H5.41683C2.56683 2.7085 1.4585 3.81683 1.4585 6.66683V13.3335C1.4585 15.2502 2.50016 17.2918 5.41683 17.2918H10.4168C13.1502 17.2918 14.2752 16.2752 14.3668 13.6835L15.5918 14.5502C16.1085 14.9168 16.5585 15.0335 16.9168 15.0335C17.2252 15.0335 17.4668 14.9418 17.6252 14.8585C17.9668 14.6835 18.5418 14.2085 18.5418 13.0168V6.9835C18.5418 5.79183 17.9668 5.31683 17.6252 5.14183ZM9.16683 9.4835C8.3085 9.4835 7.60016 8.7835 7.60016 7.91683C7.60016 7.05016 8.3085 6.35016 9.16683 6.35016C10.0252 6.35016 10.7335 7.05016 10.7335 7.91683C10.7335 8.7835 10.0252 9.4835 9.16683 9.4835Z" fill="#007AFF"/>
</svg>
