<svg width="21" height="20" viewBox="0 0 21 20" fill="none" xmlns="http://www.w3.org/2000/svg">
<path d="M14.6665 3.3335H6.33317C3.83317 3.3335 2.1665 4.5835 2.1665 7.50016V10.4668C2.1665 10.7752 2.48317 10.9668 2.75817 10.8418C3.57484 10.4668 4.5165 10.3252 5.50817 10.5002C7.69984 10.8918 9.30817 12.9252 9.24984 15.1502C9.2415 15.5002 9.1915 15.8418 9.09984 16.1752C9.03317 16.4335 9.2415 16.6752 9.50817 16.6752H14.6665C17.1665 16.6752 18.8332 15.4252 18.8332 12.5085V7.50016C18.8332 4.5835 17.1665 3.3335 14.6665 3.3335ZM10.4998 12.0835C9.34984 12.0835 8.4165 11.1502 8.4165 10.0002C8.4165 8.85016 9.34984 7.91683 10.4998 7.91683C11.6498 7.91683 12.5832 8.85016 12.5832 10.0002C12.5832 11.1502 11.6498 12.0835 10.4998 12.0835ZM16.5415 11.6668C16.5415 12.0085 16.2582 12.2918 15.9165 12.2918C15.5748 12.2918 15.2915 12.0085 15.2915 11.6668V8.3335C15.2915 7.99183 15.5748 7.7085 15.9165 7.7085C16.2582 7.7085 16.5415 7.99183 16.5415 8.3335V11.6668Z" fill="#00D9D5"/>
<path d="M4.66683 11.6665C2.82516 11.6665 1.3335 13.1582 1.3335 14.9998C1.3335 15.6248 1.5085 16.2165 1.81683 16.7165C2.39183 17.6832 3.45016 18.3332 4.66683 18.3332C5.8835 18.3332 6.94183 17.6832 7.51683 16.7165C7.82516 16.2165 8.00016 15.6248 8.00016 14.9998C8.00016 13.1582 6.5085 11.6665 4.66683 11.6665ZM6.3085 14.7248L4.5335 16.3665C4.41683 16.4748 4.2585 16.5332 4.1085 16.5332C3.95016 16.5332 3.79183 16.4748 3.66683 16.3498L2.84183 15.5248C2.60016 15.2832 2.60016 14.8832 2.84183 14.6415C3.0835 14.3998 3.4835 14.3998 3.72516 14.6415L4.12516 15.0415L5.4585 13.8082C5.7085 13.5748 6.1085 13.5915 6.34183 13.8415C6.57516 14.0915 6.5585 14.4915 6.3085 14.7248Z" fill="#00D9D5"/>
</svg>
