<svg width="21" height="20" viewBox="0 0 21 20" fill="none" xmlns="http://www.w3.org/2000/svg">
<path d="M4.99984 11.25C4.2165 11.25 3.4915 11.525 2.9165 11.9833C2.14984 12.5917 1.6665 13.5333 1.6665 14.5833C1.6665 16.425 3.15817 17.9167 4.99984 17.9167C5.8415 17.9167 6.60817 17.6 7.19984 17.0833C7.8915 16.475 8.33317 15.5833 8.33317 14.5833C8.33317 12.7417 6.8415 11.25 4.99984 11.25ZM5.83317 14.7917C5.83317 15.0083 5.7165 15.2167 5.53317 15.325L4.4915 15.95C4.3915 16.0167 4.27484 16.0417 4.1665 16.0417C3.95817 16.0417 3.74984 15.9333 3.63317 15.7417C3.45817 15.4417 3.54984 15.0583 3.84984 14.8833L4.5915 14.4417V13.5417C4.5915 13.2 4.87484 12.9167 5.2165 12.9167C5.55817 12.9167 5.83317 13.2 5.83317 13.5417V14.7917Z" fill="#FFCC00"/>
<path d="M15.208 2.0249H7.29134C4.91634 2.0249 3.33301 3.60824 3.33301 5.98324V9.6999C3.33301 9.99157 3.63301 10.1999 3.91634 10.1249C4.26634 10.0416 4.62467 9.9999 4.99967 9.9999C7.38301 9.9999 9.34967 11.9332 9.56634 14.2749C9.58301 14.5082 9.77467 14.6916 9.99967 14.6916H10.458L13.983 17.0416C14.4997 17.3916 15.208 17.0082 15.208 16.3749V14.6916C16.3913 14.6916 17.383 14.2916 18.0747 13.6082C18.7663 12.9082 19.1663 11.9166 19.1663 10.7332V5.98324C19.1663 3.60824 17.583 2.0249 15.208 2.0249ZM14.0247 9.00824H8.47467C8.14967 9.00824 7.88301 8.74157 7.88301 8.41657C7.88301 8.08324 8.14967 7.81657 8.47467 7.81657H14.0247C14.3497 7.81657 14.6163 8.08324 14.6163 8.41657C14.6163 8.74157 14.3497 9.00824 14.0247 9.00824Z" fill="#FFCC00"/>
</svg>
