<svg width="57" height="57" viewBox="0 0 57 57" fill="none" xmlns="http://www.w3.org/2000/svg">
<g clip-path="url(#clip0_333_288)">
<path d="M28.5 56.1505C43.964 56.1505 56.5 43.6145 56.5 28.1505C56.5 12.6865 43.964 0.150513 28.5 0.150513C13.036 0.150513 0.5 12.6865 0.5 28.1505C0.5 43.6145 13.036 56.1505 28.5 56.1505Z" fill="#FEE500"/>
<path d="M28.9077 15.8551C21.2447 15.8551 15.0601 20.8078 15.0601 26.7953C15.0601 30.6884 17.6226 34.1134 21.4911 36.0599L20.1852 40.9387C20.1852 40.9387 20.1605 41.0865 20.1852 41.1604C20.1852 41.2343 20.2345 41.3083 20.2837 41.3575C20.3577 41.4315 20.4562 41.4561 20.5794 41.4561C20.678 41.4561 20.7519 41.4068 20.8258 41.3575L26.4437 37.563C27.2815 37.6862 28.1193 37.7355 28.957 37.7355C36.6201 37.7355 42.8047 32.7828 42.8047 26.7707C42.8047 20.7585 36.5954 15.8305 28.9324 15.8305L28.9077 15.8551Z" fill="#392020"/>
<path d="M19.9144 25.0705H18.4114C18.2143 25.0705 18.0418 25.0212 17.8693 24.9227C17.7954 24.8734 17.7461 24.8241 17.6968 24.7502C17.6475 24.6763 17.6229 24.6023 17.5983 24.5284C17.5983 24.4791 17.5983 24.4299 17.5983 24.3806C17.5983 24.282 17.5983 24.1835 17.6475 24.0849C17.6968 23.9863 17.7461 23.9124 17.82 23.8631C17.9925 23.7399 18.1896 23.666 18.4114 23.666H22.9698C23.1669 23.666 23.3394 23.7153 23.5119 23.8139C23.5858 23.8631 23.6597 23.9124 23.6843 23.9863C23.7336 24.0603 23.7583 24.1342 23.7829 24.2081C23.7829 24.2574 23.7829 24.3067 23.7829 24.3559C23.7829 24.4545 23.7829 24.5531 23.7336 24.6516C23.6843 24.7502 23.6351 24.8241 23.5611 24.8734C23.3887 24.9966 23.1915 25.0705 22.9698 25.0459H21.516V30.2449C21.516 30.2449 21.516 30.4667 21.4667 30.5652C21.4175 30.6638 21.3682 30.7623 21.2943 30.8363C21.2203 30.9102 21.1218 30.9595 21.0232 31.0087C20.9247 31.058 20.8261 31.058 20.7029 31.058C20.5058 31.058 20.3333 31.0087 20.1855 30.8855C20.0376 30.7623 19.9391 30.6145 19.9144 30.442C19.9144 30.3681 19.9144 30.2942 19.9144 30.2203V25.0212V25.0705Z" fill="#FEE500"/>
<path d="M24.2262 24.0357C24.2755 23.8632 24.3741 23.74 24.5219 23.6414C24.6698 23.5675 24.8422 23.5182 25.0147 23.5182H25.3843C25.5568 23.5182 25.7539 23.5675 25.9018 23.6414C26.0743 23.7646 26.1974 23.9371 26.2467 24.1342L28.2179 29.7275C28.2672 29.8753 28.3165 30.0232 28.3411 30.171C28.3411 30.2449 28.3411 30.2942 28.3411 30.3681C28.3411 30.4667 28.3411 30.5653 28.2918 30.6392C28.2426 30.7377 28.1933 30.8117 28.1194 30.8609C28.0455 30.9349 27.9715 30.9841 27.873 31.0334C27.7744 31.0827 27.6758 31.0827 27.5773 31.0827C27.4294 31.0827 27.2816 31.0827 27.1338 30.9841C27.0106 30.9102 26.912 30.787 26.8627 30.6392L26.4438 29.4318H23.832L23.4131 30.6392C23.3638 30.787 23.2653 30.9102 23.1421 30.9841C23.0189 31.0581 22.8464 31.1073 22.6986 31.0827C22.5261 31.0827 22.3782 31.0334 22.2304 30.9349C22.1072 30.8363 22.0086 30.6885 21.984 30.516C21.984 30.4667 21.984 30.3928 21.984 30.3435C21.984 30.2449 21.984 30.1464 21.984 30.0478C21.984 29.9493 22.0579 29.8261 22.0826 29.7029L24.177 24.011L24.2262 24.0357ZM25.2118 25.3416L24.2755 28.2984H26.1482L25.2118 25.3416Z" fill="#FEE500"/>
<path d="M28.5629 24.3561C28.5629 24.1343 28.6368 23.9126 28.7846 23.7647C28.8585 23.6908 28.9571 23.6169 29.0557 23.5922C29.1542 23.543 29.2528 23.543 29.376 23.543C29.5731 23.543 29.7456 23.5923 29.8934 23.7155C30.0413 23.8387 30.1152 23.9865 30.1398 24.159C30.1398 24.2329 30.1398 24.3068 30.1398 24.3561V29.5551H32.8502C33.0473 29.5551 33.2198 29.6044 33.3923 29.703C33.4662 29.7522 33.5155 29.8015 33.5648 29.8755C33.6141 29.9494 33.6387 30.0233 33.6633 30.0972V30.245C33.6633 30.245 33.6633 30.4422 33.6141 30.5407C33.5648 30.6393 33.5155 30.7132 33.4416 30.7625C33.2691 30.8857 33.072 30.9596 32.8502 30.9596H29.4992C29.2774 30.9596 29.0803 30.9103 28.9078 30.8118C28.76 30.6886 28.6368 30.5161 28.6121 30.319C28.6121 30.2204 28.6121 30.0972 28.6121 29.9986V24.3807L28.5629 24.3561Z" fill="#FEE500"/>
<path d="M33.8602 24.356C33.8602 24.1342 33.9341 23.9125 34.082 23.7646C34.2298 23.6414 34.4269 23.5429 34.6241 23.5429C34.8212 23.5429 35.0183 23.5921 35.1908 23.7153C35.3386 23.8385 35.4372 23.9864 35.4618 24.1589C35.4618 24.2328 35.4618 24.3067 35.4618 24.356V26.7707L37.9751 23.8878C37.9751 23.8878 38.1722 23.6907 38.2708 23.6168C38.3693 23.5675 38.4925 23.5182 38.6157 23.5182C38.7882 23.5182 38.9607 23.5675 39.1085 23.6661C39.1825 23.7153 39.2317 23.7646 39.281 23.8385C39.3303 23.9125 39.3549 23.9864 39.3796 24.0603V24.1096C39.3796 24.1096 39.3796 24.1589 39.3796 24.1835C39.3796 24.2821 39.3549 24.3806 39.3057 24.4792C39.2564 24.5777 39.1825 24.6763 39.1085 24.7502L37.4577 26.5489L39.4289 29.6043V29.7029C39.5274 29.8507 39.6013 29.9985 39.6753 30.171V30.2203C39.6753 30.2203 39.6753 30.4421 39.626 30.5653C39.5767 30.6638 39.5028 30.7624 39.4289 30.8363C39.2564 30.9595 39.0593 31.0334 38.8621 31.0334C38.7143 31.0334 38.5911 31.0088 38.4679 30.9349C38.3447 30.8363 38.2215 30.7377 38.1476 30.5899L36.2996 27.6331L35.4125 28.5448V30.1957C35.4125 30.4174 35.3386 30.6392 35.1908 30.787C35.1169 30.8609 35.0183 30.9349 34.9197 30.9595C34.8212 31.0088 34.698 31.0088 34.5994 31.0088C34.4269 31.0088 34.2298 30.9595 34.1066 30.8363C33.9588 30.7131 33.8602 30.5653 33.8356 30.3928C33.8356 30.3189 33.8356 30.2449 33.8356 30.171L33.8849 24.3067L33.8602 24.356Z" fill="#FEE500"/>
</g>
<defs>
<clipPath id="clip0_333_288">
<rect width="56" height="56" fill="white" transform="translate(0.5 0.150513)"/>
</clipPath>
</defs>
</svg>
