<svg width="57" height="57" viewBox="0 0 57 57" fill="none" xmlns="http://www.w3.org/2000/svg">
<g clip-path="url(#clip0_382_18679)">
<path d="M28.5 56.1505C43.964 56.1505 56.5 43.6145 56.5 28.1505C56.5 12.6865 43.964 0.150513 28.5 0.150513C13.036 0.150513 0.5 12.6865 0.5 28.1505C0.5 43.6145 13.036 56.1505 28.5 56.1505Z" fill="#111111"/>
<path d="M39.5267 34.208C39.1133 35.1337 38.6333 35.9801 38.0733 36.7604C37.3133 37.8316 36.6867 38.5589 36.2067 38.9689C35.46 39.6434 34.66 39.9872 33.8067 40.0004C33.1933 40.0004 32.46 39.8285 31.5933 39.4847C30.7267 39.1408 29.94 38.9689 29.2067 38.9689C28.4467 38.9689 27.6333 39.1408 26.7533 39.4847C25.8733 39.8285 25.18 40.0137 24.6333 40.0269C23.82 40.0666 22.9933 39.7095 22.18 38.9689C21.66 38.5193 21.0067 37.7654 20.2333 36.681C19.3933 35.5305 18.7133 34.1815 18.1667 32.6607C17.5933 31.0076 17.3 29.4074 17.3 27.8601C17.3 26.0879 17.6867 24.5539 18.4733 23.2711C19.0867 22.2395 19.9 21.4328 20.9267 20.8377C21.9533 20.2426 23.0467 19.9384 24.2467 19.9252C24.9 19.9252 25.7533 20.1236 26.8067 20.5071C27.86 20.8906 28.54 21.089 28.8333 21.089C29.06 21.089 29.8067 20.8642 31.0867 20.4013C32.3 19.9781 33.3133 19.7929 34.1533 19.8723C36.42 20.0574 38.1133 20.9303 39.2467 22.504C37.22 23.7075 36.22 25.4003 36.2467 27.5691C36.26 29.2619 36.8867 30.6637 38.1133 31.7746C38.6733 32.2904 39.2867 32.6871 39.98 32.9781C39.8333 33.4013 39.6733 33.8112 39.5 34.208H39.5267ZM34.34 14.1195C34.34 15.442 33.8467 16.6719 32.8733 17.8225C31.6867 19.1846 30.26 19.9649 28.7133 19.8458C28.7 19.6871 28.6867 19.5152 28.6867 19.3433C28.6867 18.0737 29.2467 16.7116 30.2467 15.6007C30.74 15.032 31.38 14.5692 32.1533 14.1989C32.9267 13.8286 33.6467 13.6302 34.3267 13.5905C34.34 13.7624 34.3533 13.9476 34.3533 14.1195H34.34Z" fill="white"/>
</g>
<defs>
<clipPath id="clip0_382_18679">
<rect width="56" height="56" fill="white" transform="translate(0.5 0.150513)"/>
</clipPath>
</defs>
</svg>
